<svg width="800" height="650" viewBox="0 0 800 650" fill="none" xmlns="http://www.w3.org/2000/svg">
<path d="M745.876 560.326L747.243 527.651C761.499 519.553 777.399 515.276 793.563 515.19C771.316 534.519 774.096 571.777 759.014 597.769C754.251 605.838 747.841 612.664 740.259 617.742C732.676 622.82 724.115 626.019 715.211 627.103L696.594 639.216C694.04 624.082 694.603 608.54 698.245 593.66C701.887 578.78 708.522 564.915 717.692 553.022C722.898 546.404 728.868 540.51 735.46 535.477C739.919 547.971 745.876 560.326 745.876 560.326Z" fill="#F2F2F2"/>
<path d="M463.568 647.35C454.086 646.633 451.613 648.621 437.267 647.35H410.966L414.387 580.463L455.793 598.095L661.556 603.463L661.435 603.834C661.342 604.119 652.206 632.517 659.347 643.27L659.643 643.715L659.066 643.721L470.31 645.561C468.249 645.581 465.612 647.505 463.568 647.35Z" fill="#F2F2F2"/>
<path d="M474.24 648.225C455.923 646.84 436.957 654.407 421.127 645.864L408.473 646.678L408.437 646.565C408.339 646.255 402.361 596.273 414.445 576.894L414.977 576.041L415.393 580.631L411.409 642.894L420.239 639.762C441.683 650.488 467.186 643.405 491.729 643.306L658.759 642.65C662.258 642.637 665.172 645.178 665.265 648.314L665.274 648.621L484.329 648.606C480.955 648.606 477.592 648.479 474.24 648.225Z" fill="#CCCCCC"/>
<path d="M649.954 616.952L461.989 612.982L461.796 612.906L417.387 595.219L418.226 592.839L462.444 610.451L650.002 614.411L649.954 616.952Z" fill="#E6E6E6"/>
<path d="M648.951 627.648L460.986 623.678L460.794 623.602L416.384 605.914L417.223 603.535L461.442 621.147L648.999 625.107L648.951 627.648Z" fill="#E6E6E6"/>
<path d="M647.948 638.345L459.983 634.374L459.791 634.298L415.381 616.609L416.22 614.229L460.439 631.843L647.996 635.804L647.948 638.345Z" fill="#E6E6E6"/>
<path d="M475.539 604.153C458.111 602.902 441.12 597.807 425.647 589.193L412.618 581.85L412.958 578.219C413.053 577.687 413.33 577.21 413.736 576.881C414.142 576.552 414.648 576.395 415.156 576.438L416.306 576.453L591.601 579.195C603.074 579.346 614.443 581.539 625.234 585.682L663.428 600.418L663.408 600.632C663.087 604.052 659.842 606.695 656.019 606.648L483.348 604.497C480.736 604.464 478.133 604.35 475.539 604.153Z" fill="#E6E6E6"/>
<path d="M663.061 601.204L663.021 601.201L452.811 596.083L452.665 596.011L414.765 577.36L415.15 576.736L416.301 576.751L453.162 594.901L661.424 599.968L663.093 600.01L663.061 601.204Z" fill="#CCCCCC"/>
<path d="M499.641 578.056L496.972 578.016L436.729 577.069L433.874 577.027C447.639 592.6 478.075 596.496 522.686 590.463L499.641 578.056Z" fill="#CCCCCC"/>
<path d="M669.018 205.577L672.693 214.662L666.687 246.925L605.411 237.872L605.9 198.53L607.13 189.914L669.018 205.577Z" fill="#FFB6B6"/>
<path d="M700.676 623.72H687.157L680.723 568.308H700.676V623.72Z" fill="#FFB6B6"/>
<path d="M660.464 642.474C660.465 644.101 661.074 645.662 662.157 646.812C663.24 647.963 664.708 648.61 666.24 648.612H691.959L696.392 638.886L698.114 648.612H707.808L705.083 613.875L700.676 613.601L685.871 612.664L683.485 612.506V622.346L662.959 637.417C662.189 637.982 661.56 638.738 661.125 639.619C660.691 640.5 660.464 641.479 660.464 642.474Z" fill="#2F2E41"/>
<path d="M575.724 560.197H562.206L554.253 478.618L579.654 477.005L575.724 560.197Z" fill="#FFB6B6"/>
<path d="M535.511 578.951C535.513 580.579 536.122 582.139 537.204 583.29C538.287 584.441 539.756 585.088 541.287 585.089H567.006L571.439 575.364L573.161 585.089H582.855L580.13 550.352L576.198 550.107L561.135 549.142L558.532 548.983V558.824L538.006 573.894C537.236 574.46 536.607 575.216 536.173 576.096C535.738 576.977 535.511 577.957 535.511 578.951V578.951Z" fill="#2F2E41"/>
<path d="M706.414 575.935H706.362L703.762 485.836C705.444 482.388 706.298 478.55 706.248 474.666C706.197 470.781 705.243 466.971 703.471 463.573L703.099 462.857L704.064 458.103C705.304 451.994 704.735 445.628 702.436 439.877L700.01 355.832C708.675 296.153 667.38 257.233 667.38 257.233L671.175 225.954L604.382 227.567L605.518 257.233L592.237 305.724C585.247 378.089 538.207 423.573 545.357 492.774C545.372 492.973 545.344 493.173 545.275 493.359C544.55 495.703 544.295 498.183 544.526 500.638C544.757 503.094 545.47 505.471 546.618 507.616C546.916 508.163 547.12 508.762 547.223 509.384C548.696 521.516 548.888 506.17 550.84 518.195L550.46 518.399C549.092 518.9 548.506 520.914 549.149 522.896C549.793 524.878 551.424 526.078 552.791 525.576L588.498 525.982C589.865 525.48 590.452 523.467 589.808 521.485C589.164 519.503 587.534 518.303 586.166 518.804L583.945 519.998L587.661 507.077L588.964 505.784C589.588 505.165 590.072 504.404 590.381 503.558C590.689 502.711 590.813 501.802 590.744 500.898C590.674 499.993 590.414 499.117 589.981 498.335C589.548 497.553 588.954 496.885 588.244 496.381L591.946 475.383L591.42 459.503L592.504 441.487L639.354 369.344L658.309 468.995L677.67 576.938C677.219 577.371 676.879 577.92 676.685 578.532C676.49 579.145 676.447 579.8 676.56 580.435C676.738 581.323 677.201 582.117 677.87 582.681C678.538 583.245 679.371 583.545 680.225 583.528H706.509C707.06 583.528 707.603 583.392 708.097 583.132C708.591 582.871 709.021 582.493 709.355 582.027C709.688 581.561 709.916 581.02 710.021 580.445C710.125 579.869 710.103 579.277 709.956 578.712C709.735 577.9 709.268 577.189 708.628 576.687C707.988 576.185 707.21 575.921 706.414 575.935V575.935Z" fill="#2F2E41"/>
<path d="M683.041 52.2667C683.043 58.0191 681.716 63.6841 679.177 68.7645C676.637 73.8448 672.964 78.185 668.477 81.4042C663.991 84.6234 658.83 86.6231 653.447 87.2277C648.064 87.8324 642.624 87.0235 637.603 84.8722C632.583 82.7208 628.136 79.2927 624.654 74.8887C621.171 70.4848 618.759 65.2397 617.63 59.614C616.5 53.9882 616.687 48.1537 618.175 42.6227C619.662 37.0917 622.404 32.0333 626.161 27.8915L626.32 27.723C626.584 27.4277 626.849 27.1326 627.127 26.8513C627.128 26.8513 627.13 26.851 627.132 26.8503C627.133 26.8496 627.135 26.8486 627.136 26.8472C627.137 26.8459 627.138 26.8444 627.139 26.8427C627.14 26.8409 627.14 26.8391 627.14 26.8372C627.519 26.543 627.869 26.2086 628.185 25.8392C632.649 19.2099 637.711 13.6512 649.971 17.1239C667.622 22.1236 683.041 32.8537 683.041 52.2667Z" fill="#2F2E41"/>
<path d="M501.382 37.2227C501.307 39.1029 501.621 40.9777 502.302 42.7151C502.982 44.4525 504.013 46.0101 505.322 47.2783C506.63 48.5465 508.184 49.4944 509.875 50.0553C511.565 50.6162 513.351 50.7764 515.106 50.5246L600.39 124.905L613.417 100.573L525.489 35.1107C524.895 32.0057 523.251 29.2399 520.866 27.3374C518.482 25.4349 515.524 24.5278 512.553 24.7882C509.581 25.0485 506.803 26.4581 504.744 28.7499C502.685 31.0417 501.489 34.0564 501.382 37.2228V37.2227Z" fill="#FFB6B6"/>
<path d="M636.402 146.841C636.402 146.841 636.375 144.162 622.818 144.265C605.989 144.393 559.641 118.717 563.695 94.5365C561.77 95.4608 559.61 95.6783 557.556 95.1548C555.503 94.6312 553.671 93.3964 552.35 91.6447L574.913 68.5586C581.994 69.0668 582.066 74.1017 581.46 76.9928L599.594 84.6501L646.823 113.486L638.484 142.451L636.402 146.841Z" fill="#EF4444"/>
<path d="M641.824 89.8666C657.139 89.8666 669.554 76.673 669.554 60.3979C669.554 44.1228 657.139 30.9292 641.824 30.9292C626.509 30.9292 614.093 44.1228 614.093 60.3979C614.093 76.673 626.509 89.8666 641.824 89.8666Z" fill="#FFB7B7"/>
<path d="M603.711 206.972C602.18 209.144 601.398 211.811 601.496 214.523C601.595 217.236 602.569 219.829 604.254 221.87C604.267 222.734 604.389 223.57 605.542 226.667C605.692 226.968 605.869 227.252 606.07 227.517C606.108 227.582 606.149 227.645 606.192 227.705C607.406 229.373 609.094 230.581 611.005 231.148L661.766 246.204L668.477 248.193L669.656 248.538L670.307 238.799C671.816 237.469 672.828 235.609 673.159 233.556C673.489 231.503 673.117 229.391 672.11 227.604L671.175 225.961L676.625 210.387L677.154 208.845L691.051 169.094L691.064 166.443L691.091 163.706L691.227 144.601C691.233 138.58 689.927 132.639 687.41 127.244C684.893 121.85 681.234 117.149 676.72 113.509C672.609 110.171 667.869 107.812 662.823 106.593L662.715 106.579L657.224 98.7268L634.948 101.09L633.105 105.109L630.868 109.95L614.72 120.166L609.202 133.795L605.474 143.016C599.698 147.425 596.255 153.087 595.265 159.83C593.15 174.151 602.586 188.487 603.711 190.129L603.996 206.569L603.711 206.972Z" fill="#EF4444"/>
<path d="M670.845 68.1232C670.593 68.081 670.342 68.0247 670.091 67.9825C665.765 67.1673 661.44 66.3661 657.127 65.5366L656.731 55.1485L651.506 64.4542C639.587 68.6572 628.436 66.2817 617.947 61.0384C614.487 59.2929 611.129 57.326 607.893 55.1486C606.828 37.5799 613.512 26.3327 625.949 27.5122C626.404 27.5553 626.73 27.0625 627.127 26.8514C627.128 26.8515 627.13 26.8511 627.132 26.8504C627.133 26.8497 627.135 26.8487 627.136 26.8474C627.137 26.8461 627.138 26.8445 627.139 26.8428C627.14 26.841 627.14 26.8392 627.14 26.8374C627.815 26.5 628.502 26.1767 629.19 25.8816C634.575 23.6451 640.447 23.0788 646.123 24.2483C651.799 25.4178 657.046 28.2752 661.254 32.4884C669.72 41.0774 673.53 55.261 670.845 68.1232Z" fill="#2F2E41"/>
<path d="M670.091 67.9825C670.091 67.9825 661.876 35.3982 626.664 27.8775C626.624 27.8636 626.492 27.8073 626.32 27.7231C626.214 27.6527 626.082 27.5824 625.949 27.5122C626.346 27.2732 626.73 27.0625 627.127 26.8514C627.128 26.8514 627.13 26.8511 627.132 26.8504C627.133 26.8497 627.135 26.8486 627.136 26.8473C627.137 26.846 627.138 26.8444 627.139 26.8427C627.14 26.841 627.14 26.8392 627.14 26.8373C627.484 26.5 627.828 26.1626 628.185 25.8393L629.19 25.8815C629.19 25.8815 664.522 19.9354 670.091 67.9825Z" fill="#FD6584"/>
<path d="M683.637 273.387C682.985 273.979 682.192 274.369 681.345 274.515C680.499 274.661 679.63 274.556 678.836 274.212C677.255 273.5 675.851 272.408 674.733 271.023C670.172 265.939 666.913 259.697 665.267 252.893L666.788 250.017C666.191 246.471 666.753 242.814 668.381 239.654C670.008 236.493 672.604 234.019 675.737 232.643C677.52 231.84 679.496 231.657 681.383 232.121C682.318 232.368 683.173 232.879 683.858 233.6C684.543 234.321 685.032 235.225 685.273 236.216C685.859 239.293 683.447 242.07 681.005 243.836C676.751 246.905 671.832 248.775 666.712 249.271C672.975 253.023 678.39 258.187 682.575 264.4C683.543 265.696 684.256 267.185 684.674 268.779C684.875 269.578 684.885 270.417 684.704 271.222C684.523 272.026 684.156 272.77 683.637 273.387Z" fill="#2F2E41"/>
<path d="M333.122 649.658H798.509C798.905 649.658 799.284 649.491 799.563 649.194C799.843 648.896 800 648.493 800 648.073C800 647.653 799.843 647.25 799.563 646.953C799.284 646.656 798.905 646.489 798.509 646.489H333.122C332.726 646.489 332.347 646.656 332.067 646.953C331.788 647.25 331.631 647.653 331.631 648.073C331.631 648.493 331.788 648.896 332.067 649.194C332.347 649.491 332.726 649.658 333.122 649.658V649.658V649.658Z" fill="#CCCCCC"/>
<path d="M456.719 242.364V243.191C455.042 241.104 453.332 239.035 451.639 236.965C450.928 236.101 450.217 235.238 449.505 234.374C446.491 230.739 443.46 227.116 440.412 223.505C437.347 219.906 434.282 216.307 431.183 212.726C430.438 211.862 429.693 210.999 428.931 210.135C428.321 209.409 427.659 208.735 426.95 208.119C426.235 207.487 425.413 207.005 424.529 206.698C423.511 206.398 422.437 206.386 421.413 206.662C420.244 206.95 419.127 207.4 417.993 207.778C416.824 208.192 415.672 208.587 414.504 208.983C412.167 209.793 409.848 210.603 407.511 211.413C407.482 211.425 407.452 211.431 407.422 211.431C407.391 211.431 407.361 211.424 407.333 211.411C407.305 211.399 407.28 211.38 407.259 211.357C407.237 211.335 407.22 211.307 407.209 211.277L407.206 211.269C407.192 211.234 407.186 211.198 407.188 211.161C407.19 211.124 407.199 211.088 407.215 211.055C407.231 211.023 407.254 210.994 407.282 210.972C407.309 210.95 407.341 210.934 407.375 210.927C407.951 210.729 408.544 210.531 409.136 210.333C411.49 209.505 413.827 208.695 416.181 207.886C417.349 207.472 418.517 207.076 419.686 206.68C420.769 206.243 421.914 205.999 423.073 205.96C424.964 206.105 426.738 206.99 428.051 208.443C428.779 209.163 429.439 209.919 430.1 210.693C430.879 211.593 431.658 212.492 432.437 213.392C435.569 217.027 438.679 220.674 441.767 224.333C444.865 228.004 447.936 231.681 450.979 235.364C451.199 235.634 451.419 235.904 451.639 236.174C453.349 238.225 455.025 240.294 456.719 242.364Z" fill="white"/>
<path d="M426.687 211.435C426.048 210.559 425.195 209.886 424.221 209.487L423.259 209.523C430.816 222.021 440.717 232.728 452.344 240.976C443.792 231.129 435.239 221.282 426.687 211.435Z" fill="white"/>
<path d="M584.41 341.313L546.049 123.037C545.393 119.439 543.605 116.185 540.98 113.807C538.355 111.43 535.048 110.072 531.601 109.954C531.29 109.947 530.98 109.947 530.67 109.954L504.538 110.95L501.725 111.06L488.683 111.558L485.871 111.661L477.481 111.983L308.32 118.437C308.065 118.451 307.803 118.451 307.548 118.444L269.642 117.602L255.614 117.294L255.166 117.287L244.812 117.052L154.593 115.06L130.673 114.525L118.879 114.269L116.053 114.203L102.604 113.91L99.7844 113.844L86.0253 113.543L83.206 113.477L68.089 113.14L65.7177 113.089L52.2344 112.789L50.1044 112.745H49.7942C46.2147 112.76 42.7556 114.12 40.0284 116.584C37.3011 119.048 35.4814 122.457 34.8909 126.209L0.196998 352.712C-0.155317 355.006 -0.034019 357.354 0.552461 359.594C1.13894 361.834 2.17656 363.911 3.59351 365.683C5.01045 367.454 6.77281 368.877 8.7585 369.852C10.7442 370.828 12.9057 371.333 15.0934 371.333H214.337C217.27 371.341 220.123 372.342 222.485 374.19L226.262 377.164C228.866 379.2 232.012 380.303 235.244 380.314C273.726 369.521 314.183 369.521 352.665 380.314C354.649 380.319 356.614 379.906 358.447 379.099C360.28 378.292 361.944 377.106 363.342 375.611C365.734 373.07 368.926 371.559 372.304 371.369L570.362 360.279C572.509 360.159 574.608 359.554 576.518 358.502C578.427 357.451 580.103 355.978 581.434 354.182C582.764 352.386 583.718 350.309 584.231 348.09C584.744 345.87 584.805 343.56 584.41 341.313V341.313Z" fill="#CCCCCC"/>
<path d="M530.133 307.275C529.879 314.672 526.872 321.659 521.772 326.7C516.671 331.741 509.896 334.424 502.936 334.158C491.435 333.726 477.711 333.51 462.815 333.841C414.169 334.946 353.055 342.06 316.293 367.647C311.673 370.87 306.213 372.462 300.692 372.196C300.286 372.17 299.891 372.145 299.485 372.107C293.761 371.551 288.367 369.011 284.134 364.878C263.883 345.186 217.437 321.339 111.121 319.662C110.679 319.662 110.248 319.637 109.818 319.611C106.374 319.381 103.007 318.432 99.9092 316.818C96.8111 315.204 94.0427 312.957 91.7622 310.206C89.4817 307.455 87.7338 304.252 86.6185 300.783C85.5032 297.313 85.0423 293.644 85.2621 289.985L95.7108 113.76L97.2769 87.3473L100.027 41.1409C100.304 36.4876 102.238 32.121 105.435 28.9282C108.633 25.7355 112.854 23.9561 117.242 23.9517H117.349L180.687 24.3455C207.371 25.6287 229.472 29.241 246.99 35.1825C252.974 37.1544 258.796 39.6444 264.397 42.6274C272.047 46.5687 278.92 52.0231 284.648 58.6986C288.217 62.9631 293.084 65.7562 298.397 66.5881C299.221 66.7189 300.051 66.7995 300.883 66.8295C305.783 67.0449 310.617 65.5746 314.668 62.637C356.044 33.1752 440.363 30.9392 486.928 32.2097C493.44 32.3711 499.662 35.1028 504.383 39.8727C509.104 44.6426 511.984 51.1091 512.464 58.0126L514.353 84.2983L516.23 110.508L527.061 261.984L530.074 304.125C530.147 305.173 530.167 306.225 530.133 307.275V307.275Z" fill="#F2F2F2"/>
<path d="M126.878 85.9623C165.047 73.0211 207.63 76.4472 243.79 94.6787C254.107 99.8537 263.851 106.231 272.842 113.694C275.386 115.816 279.005 112.021 276.434 109.877C243.222 82.5018 201.492 69.4973 159.627 73.4764C148.046 74.5778 136.611 77.019 125.528 80.7567C122.425 81.8086 123.751 87.0226 126.878 85.9623H126.878Z" fill="#3F3D56"/>
<path d="M336.909 115.789C372.396 95.9668 414.891 91.6443 453.475 102.896C464.475 106.096 475.106 110.588 485.171 116.288C488.054 117.923 490.623 113.265 487.735 111.627C450.961 90.7745 406.818 85.9743 366.661 97.5982C355.458 100.847 344.622 105.383 334.345 111.127C331.45 112.744 334.015 117.405 336.909 115.789Z" fill="#3F3D56"/>
<path d="M336.909 151.778C372.396 131.956 414.891 127.634 453.475 138.886C464.476 142.086 475.106 146.577 485.171 152.278C488.054 153.913 490.623 149.254 487.735 147.616C450.961 126.764 406.818 121.964 366.661 133.588C355.458 136.836 344.622 141.373 334.345 147.117C331.45 148.734 334.015 153.395 336.909 151.778L336.909 151.778Z" fill="#3F3D56"/>
<path d="M488.978 185.837C489.004 185.374 488.899 184.913 488.676 184.513C488.453 184.114 488.122 183.796 487.726 183.6C458.267 167.207 424.865 160.558 391.82 164.509C391.613 164.527 391.422 164.562 391.198 164.58H391.19C390.987 164.599 390.785 164.631 390.585 164.677C370.93 167.08 351.864 173.325 334.346 183.097C333.964 183.339 333.648 183.682 333.429 184.093C333.209 184.504 333.094 184.968 333.094 185.441V252.579C333.101 252.992 333.195 253.398 333.371 253.767C333.547 254.135 333.799 254.456 334.109 254.706C334.419 254.955 334.779 255.127 335.16 255.207C335.541 255.287 335.935 255.274 336.311 255.169C337.09 254.931 337.87 254.702 338.665 254.482C356.374 249.388 374.554 246.366 392.881 245.469C393.271 245.452 393.661 245.434 394.067 245.417C408.994 244.735 423.948 245.307 438.791 247.125C439.102 247.144 439.412 247.179 439.719 247.231C440.482 247.319 441.261 247.416 442.024 247.522C442.33 247.557 442.621 247.592 442.902 247.645C445.87 248.042 448.813 248.491 451.764 248.975C456.025 249.698 460.286 250.502 464.547 251.389C464.813 251.442 465.086 251.513 465.36 251.566C472.199 253.01 479.005 254.684 485.778 256.534C486.155 256.638 486.549 256.649 486.931 256.567C487.313 256.484 487.672 256.311 487.982 256.06C488.292 255.809 488.544 255.487 488.719 255.117C488.894 254.748 488.988 254.34 488.994 253.927V185.943C488.997 185.907 488.991 185.87 488.978 185.837V185.837Z" fill="#3F3D56"/>
<path d="M395.803 168.17C393.942 167.201 391.808 167.002 389.817 167.611C388.937 167.962 388.132 168.494 387.447 169.178C386.763 169.862 386.213 170.684 385.83 171.596C385.14 173.344 384.698 175.191 384.518 177.077C384.413 177.818 384.406 178.754 385.108 179.101C385.362 179.199 385.637 179.221 385.903 179.165C386.169 179.109 386.415 178.977 386.616 178.783C386.978 178.404 387.277 177.961 387.498 177.474C388.717 175.46 390.393 173.805 392.373 172.661C394.352 171.517 396.571 170.922 398.824 170.931L400.7 171.725C399.224 170.313 397.577 169.117 395.803 168.17V168.17Z" fill="#FF6582"/>
<path d="M416.101 183.644C414.645 181.367 412.921 178.936 410.22 178.193C407.092 177.332 403.879 179.042 401.153 180.73C393.049 185.746 385.201 191.216 377.642 197.116L377.65 197.204L395.195 196.06C399.42 195.784 403.791 195.471 407.525 193.58C408.866 192.687 410.364 192.094 411.928 191.838C412.899 191.893 413.849 192.153 414.725 192.601C415.6 193.049 416.384 193.678 417.029 194.449C425.115 202.594 427.455 215.048 436.526 222.204C430.754 208.761 423.921 195.862 416.101 183.644V183.644Z" fill="white"/>
<path d="M394.069 245.415C393.663 245.433 393.274 245.451 392.884 245.469C390.056 244.39 387.161 243.436 384.231 242.608C382.335 242.068 380.404 241.583 378.474 241.169C376.289 240.665 374.088 240.269 371.887 239.927C367.696 239.279 363.472 238.901 359.238 238.793C359.206 238.797 359.173 238.794 359.143 238.783C359.112 238.773 359.084 238.755 359.059 238.732C359.035 238.709 359.016 238.681 359.003 238.65C358.99 238.619 358.983 238.585 358.983 238.551C358.983 238.516 358.99 238.482 359.003 238.451C359.016 238.42 359.035 238.392 359.059 238.369C359.084 238.346 359.112 238.328 359.143 238.318C359.173 238.307 359.206 238.304 359.238 238.308C359.779 238.308 360.321 238.326 360.846 238.362C365.089 238.528 369.319 238.967 373.512 239.675C375.697 240.053 377.881 240.503 380.049 241.007C382.013 241.475 383.977 241.997 385.908 242.572C388.668 243.4 391.388 244.348 394.069 245.415Z" fill="white"/>
<path d="M442.905 247.647C442.617 247.593 442.329 247.557 442.025 247.521C440.856 246.495 439.671 245.524 438.435 244.57C436.894 243.382 435.302 242.266 433.677 241.223C430.076 238.9 426.318 236.867 422.433 235.14C416.29 232.422 409.932 230.29 403.434 228.77C396.021 227.045 388.517 225.795 380.963 225.027C373.411 224.199 365.825 223.696 358.239 223.192C357.917 223.174 357.9 222.67 358.239 222.688C359.187 222.76 360.135 222.814 361.1 222.886C368.771 223.39 376.442 223.966 384.062 224.883C391.617 225.744 399.112 227.127 406.499 229.022C412.804 230.674 418.959 232.92 424.888 235.734C428.299 237.363 431.602 239.232 434.777 241.331C436.792 242.68 438.74 244.12 440.602 245.649C441.381 246.297 442.16 246.945 442.905 247.647Z" fill="white"/>
<path d="M439.722 247.233C439.413 247.18 439.102 247.144 438.79 247.125C438.435 246.819 438.062 246.531 437.69 246.243C435.083 244.26 432.363 242.451 429.545 240.826C426.986 239.348 424.357 238.009 421.671 236.814C415.531 234.087 409.172 231.955 402.672 230.444C395.259 228.718 387.755 227.468 380.201 226.701C372.649 225.873 365.063 225.369 357.477 224.865C357.155 224.829 357.155 224.343 357.477 224.361C358.442 224.433 359.39 224.487 360.338 224.559C368.009 225.063 375.68 225.639 383.3 226.557C390.855 227.417 398.35 228.8 405.737 230.696C412.043 232.344 418.197 234.59 424.126 237.408C426.361 238.487 428.546 239.657 430.679 240.935C433.843 242.781 436.866 244.886 439.722 247.233Z" fill="white"/>
<path d="M465.359 251.57C465.088 251.516 464.817 251.444 464.546 251.39C464.241 251.048 463.953 250.688 463.665 250.328C462.209 248.546 460.77 246.747 459.347 244.929C453.743 237.84 448.425 230.534 443.413 223.084C439.112 216.714 435.031 210.217 431.17 203.595C429.325 200.464 427.546 197.297 425.803 194.094C424.448 191.611 423.127 189.122 421.84 186.626C421.468 185.906 421.112 185.187 420.757 184.467C419.926 182.775 419.097 181.066 418.217 179.392C417.259 177.342 415.854 175.565 414.118 174.21C413.251 173.592 412.247 173.227 411.206 173.148C409.738 173.154 408.294 173.55 407.006 174.3C397.533 178.988 388.596 184.814 380.371 191.665C372.337 198.305 365.073 205.934 358.73 214.392C358.527 214.644 358.086 214.41 358.273 214.14C359.034 213.133 359.813 212.125 360.592 211.135C366.688 203.472 373.553 196.539 381.065 190.459C381.082 190.441 381.115 190.423 381.132 190.405C381.793 189.847 382.453 189.308 383.13 188.786C387.324 185.504 391.689 182.476 396.203 179.716C398.506 178.295 400.86 176.945 403.264 175.667C403.857 175.344 404.466 175.02 405.076 174.714C405.686 174.39 406.295 174.084 406.905 173.778C408.111 173.124 409.431 172.738 410.783 172.644C415.49 172.572 417.911 177.611 419.588 181.012C420.113 182.074 420.655 183.135 421.18 184.197C423.212 188.21 425.328 192.205 427.53 196.145C428.867 198.593 430.256 201.022 431.661 203.433C433.676 206.871 435.742 210.271 437.893 213.655C437.893 213.657 437.893 213.659 437.894 213.661C437.895 213.664 437.896 213.666 437.897 213.667C437.899 213.669 437.901 213.67 437.903 213.671C437.905 213.672 437.907 213.673 437.909 213.673H437.91C440.399 217.667 442.99 221.59 445.665 225.495C450.254 232.171 455.063 238.697 460.093 245.074C461.82 247.269 463.575 249.434 465.359 251.57Z" fill="white"/>
<path d="M404.946 172.096L404.477 172.313C403.405 170.388 401.901 168.774 400.099 167.615C398.298 166.456 396.255 165.788 394.153 165.671C387.22 165.147 381.13 170.057 380.577 176.614C380.352 179.314 381.088 182.006 382.638 184.158L382.203 184.431C380.588 182.19 379.822 179.387 380.056 176.575C380.633 169.746 386.975 164.634 394.194 165.178C396.384 165.301 398.511 165.997 400.387 167.203C402.262 168.41 403.829 170.091 404.946 172.096V172.096Z" fill="#FF6582"/>
<path d="M370.69 185.363C368.871 184.522 366.889 184.153 364.909 184.287C362.929 184.421 361.007 185.054 359.303 186.133C365.525 187.148 371.693 188.509 377.781 190.213C375.26 188.815 373.288 186.626 370.69 185.363Z" fill="white"/>
<path d="M359.268 186.127L358.583 186.654C358.815 186.469 359.055 186.296 359.303 186.133L359.268 186.127Z" fill="white"/>
<path d="M379.901 189.182C379.628 188.894 379.357 188.606 379.082 188.318C376.974 185.881 374.436 183.907 371.612 182.509C370.174 181.866 368.631 181.528 367.071 181.514C365.459 181.554 363.865 181.883 362.357 182.486C361.647 182.755 360.953 183.059 360.269 183.383C359.488 183.755 358.721 184.152 357.957 184.552C356.523 185.302 355.108 186.085 353.712 186.901C350.934 188.526 348.242 190.274 345.638 192.146C344.288 193.117 342.966 194.12 341.672 195.154C340.468 196.115 339.288 197.102 338.133 198.115C337.886 198.33 337.517 197.981 337.764 197.766C338.069 197.497 338.377 197.231 338.685 196.968C339.554 196.224 340.438 195.494 341.336 194.779C342.973 193.472 344.652 192.216 346.374 191.011C349.051 189.135 351.821 187.386 354.683 185.764C356.113 184.955 357.563 184.179 359.032 183.438C359.476 183.214 359.925 182.995 360.379 182.788C361.416 182.293 362.485 181.881 363.58 181.555C365.149 181.077 366.79 180.924 368.414 181.106C369.969 181.317 371.478 181.81 372.875 182.565C375.643 184.214 378.141 186.331 380.27 188.832C380.493 189.069 380.126 189.419 379.901 189.182Z" fill="white"/>
<path d="M126.878 121.952C165.047 109.011 207.63 112.437 243.79 130.668C254.107 135.843 263.851 142.221 272.842 149.684C275.386 151.805 279.005 148.011 276.434 145.867C243.222 118.491 201.492 105.487 159.627 109.466C148.046 110.567 136.611 113.008 125.528 116.746C122.425 117.798 123.751 123.012 126.878 121.952L126.878 121.952Z" fill="#3F3D56"/>
<path d="M126.878 157.942C165.047 145 207.63 148.427 243.79 166.658C254.107 171.833 263.851 178.211 272.842 185.674C275.386 187.795 279.005 184 276.434 181.856C243.222 154.481 201.492 141.477 159.627 145.456C148.046 146.557 136.611 148.998 125.528 152.736C122.425 153.788 123.751 159.002 126.878 157.942L126.878 157.942Z" fill="#3F3D56"/>
<path d="M126.878 193.931C165.047 180.99 207.63 184.416 243.79 202.647C254.107 207.822 263.851 214.2 272.842 221.663C275.386 223.784 279.005 219.99 276.434 217.846C243.222 190.471 201.492 177.466 159.627 181.445C148.046 182.547 136.611 184.988 125.528 188.725C122.425 189.777 123.751 194.991 126.878 193.931L126.878 193.931Z" fill="#3F3D56"/>
<path d="M126.878 229.921C165.047 216.98 207.63 220.406 243.79 238.637C254.107 243.812 263.851 250.19 272.842 257.653C275.386 259.774 279.005 255.98 276.434 253.836C243.222 226.461 201.492 213.456 159.627 217.435C148.046 218.537 136.611 220.978 125.528 224.715C122.425 225.767 123.751 230.981 126.878 229.921L126.878 229.921Z" fill="#3F3D56"/>
<path d="M126.878 265.911C165.047 252.969 207.63 256.395 243.79 274.627C254.107 279.802 263.851 286.18 272.842 293.643C275.386 295.764 279.005 291.969 276.434 289.825C243.222 262.45 201.492 249.446 159.627 253.425C148.046 254.526 136.611 256.967 125.528 260.705C122.425 261.757 123.751 266.971 126.878 265.911H126.878Z" fill="#3F3D56"/>
<path d="M264.397 42.6272V128.929C264.397 130.644 261.575 132.08 257.773 132.474C257.741 132.472 257.709 132.476 257.678 132.486C257.044 132.537 256.375 132.575 255.693 132.575C253.597 132.616 251.512 132.255 249.536 131.508C249.357 131.432 249.178 131.343 248.998 131.267C248.831 131.165 248.652 131.076 248.484 130.975C247.54 130.377 246.99 129.679 246.99 128.929V35.1824C252.974 37.1543 258.796 39.6442 264.397 42.6272V42.6272Z" fill="#EF4444"/>
<path d="M300.881 62.6436H298.394V370.391H300.881V62.6436Z" fill="#E6E6E6"/>
<path d="M571.33 273.319C573.094 273.147 574.801 272.567 576.33 271.619C577.86 270.671 579.176 269.378 580.184 267.831C581.193 266.284 581.87 264.521 582.168 262.666C582.466 260.811 582.377 258.909 581.909 257.094L633.528 231.487L664.605 178.066L640.178 167.585L619.213 210.634L566.151 248.21C563.334 249.249 560.974 251.349 559.517 254.114C558.06 256.878 557.608 260.114 558.246 263.209C558.885 266.304 560.569 269.043 562.981 270.906C565.392 272.769 568.363 273.628 571.33 273.319V273.319Z" fill="#FFB6B6"/>
<path d="M683.774 126.889C683.774 126.889 689.857 129 683.181 141.539C677.835 151.578 651.796 209.404 641.168 220.758C642.286 222.662 642.776 224.907 642.562 227.14C642.347 229.373 641.439 231.467 639.981 233.091L615.446 212.401C614.977 204.876 619.664 204.129 622.441 204.383L628.085 183.124L647.772 130.681L679.402 125.281L683.774 126.889Z" fill="#EF4444"/>
<path d="M684.304 28.5956C685.464 23.6113 693.88 19.9311 679.464 12.9725C675.966 11.2837 676.111 5.46778 673.151 2.86322C670.192 0.258667 665.858 -0.948837 662.418 0.871646C659.347 2.49733 657.616 6.17631 657.247 9.80181C657.07 13.4508 657.466 17.1055 658.42 20.616L658.14 21.0499C663.851 25.6935 669.561 30.3371 675.272 34.9806C677.37 36.687 680.113 38.4737 682.465 37.1934C685.127 35.7439 683.586 31.6815 684.304 28.5956Z" fill="#2F2E41"/>
</svg>
