<svg width="800" height="650" viewBox="0 0 800 650" fill="none" xmlns="http://www.w3.org/2000/svg">
<path d="M43.3614 12.8376C41.9543 12.8361 40.6041 13.4466 39.6068 14.5356C38.6095 15.6245 38.0468 17.1029 38.0417 18.6465L36.7344 641.692C36.7328 643.237 37.2895 644.717 38.2821 645.811C39.2748 646.906 40.6224 647.523 42.0295 647.528L499.568 648.683C500.976 648.684 502.325 648.074 503.324 646.985C504.32 645.895 504.883 644.417 504.888 642.873L506.195 19.8269C506.196 18.283 505.64 16.8017 504.648 15.7077C503.654 14.6136 502.307 13.9963 500.899 13.9911L43.3614 12.8376Z" fill="#E7D6D6"/>
<path d="M60.3115 31.5142C58.9045 31.5126 57.5543 32.1231 56.557 33.2121C55.5597 34.3011 54.9969 35.7795 54.9919 37.323L53.768 623.103C53.7665 624.647 54.3231 626.127 55.3158 627.221C56.3084 628.316 57.6561 628.932 59.0631 628.938L482.631 630.008C484.039 630.009 485.389 629.398 486.386 628.31C487.384 627.221 487.945 625.743 487.951 624.199L489.175 38.4191C489.176 36.8753 488.62 35.394 487.627 34.3C486.634 33.2059 485.286 32.5885 483.879 32.5834L60.3115 31.5142Z" fill="white"/>
<path d="M430.592 286.258L210.271 285.468C208.792 285.436 207.38 284.496 206.343 282.853C205.305 281.209 204.725 278.995 204.729 276.689C204.732 274.384 205.318 272.173 206.361 270.536C207.404 268.901 208.818 267.972 210.298 267.95L430.619 268.741C432.098 268.772 433.51 269.712 434.547 271.355C435.585 272.999 436.165 275.214 436.161 277.519C436.158 279.825 435.572 282.036 434.529 283.672C433.486 285.308 432.072 286.237 430.592 286.259V286.258Z" fill="#E6E6E6"/>
<path d="M430.592 225.227L210.271 224.437C208.792 224.406 207.38 223.466 206.343 221.823C205.305 220.179 204.725 217.964 204.729 215.659C204.732 213.353 205.318 211.142 206.361 209.506C207.404 207.87 208.818 206.941 210.298 206.919L430.619 207.71C432.098 207.742 433.51 208.682 434.547 210.325C435.585 211.969 436.165 214.183 436.161 216.489C436.158 218.794 435.572 221.005 434.529 222.642C433.486 224.277 432.072 225.206 430.592 225.228V225.227Z" fill="#E6E6E6"/>
<path d="M430.592 164.197L210.271 163.407C208.792 163.375 207.38 162.435 206.343 160.793C205.305 159.148 204.725 156.934 204.729 154.628C204.732 152.323 205.318 150.112 206.361 148.475C207.404 146.84 208.818 145.911 210.298 145.889L430.619 146.68C432.098 146.712 433.51 147.651 434.547 149.294C435.585 150.939 436.165 153.153 436.161 155.458C436.158 157.764 435.572 159.975 434.529 161.612C433.486 163.247 432.072 164.176 430.592 164.198V164.197Z" fill="#E6E6E6"/>
<path d="M430.466 342.406L210.269 341.616C208.79 341.584 207.379 340.644 206.342 339.001C205.305 337.357 204.725 335.143 204.729 332.837C204.732 330.531 205.318 328.321 206.36 326.684C207.402 325.048 208.816 324.12 210.294 324.098L430.491 324.887C431.981 324.865 433.415 325.767 434.479 327.396C435.543 329.023 436.147 331.243 436.161 333.566C436.175 335.889 435.596 338.126 434.552 339.784C433.509 341.441 432.086 342.385 430.596 342.407C430.552 342.407 430.509 342.407 430.466 342.406Z" fill="#E6E6E6"/>
<path d="M427.377 398.845L115.277 398.057C113.182 398.025 111.182 397.087 109.712 395.449C108.242 393.81 107.42 391.602 107.425 389.302C107.43 387.004 108.261 384.799 109.738 383.168C111.214 381.537 113.218 380.609 115.313 380.588L427.414 381.377C428.461 381.365 429.499 381.578 430.47 382.005C431.441 382.434 432.326 383.067 433.075 383.872C433.823 384.675 434.418 385.632 434.828 386.689C435.238 387.745 435.455 388.88 435.465 390.029C435.474 391.177 435.278 392.316 434.886 393.38C434.493 394.446 433.915 395.415 433.181 396.234C432.447 397.053 431.573 397.705 430.609 398.153C429.646 398.601 428.611 398.836 427.564 398.845C427.502 398.846 427.439 398.846 427.377 398.845Z" fill="#E6E6E6"/>
<path d="M427.256 455.327L115.155 454.539C113.06 454.507 111.06 453.57 109.591 451.932C108.121 450.292 107.299 448.084 107.304 445.785C107.309 443.486 108.14 441.282 109.616 439.65C111.093 438.019 113.097 437.092 115.192 437.071L427.292 437.859C429.402 437.84 431.432 438.741 432.938 440.363C434.443 441.985 435.3 444.197 435.32 446.511C435.34 448.825 434.521 451.054 433.045 452.708C431.567 454.361 429.553 455.303 427.443 455.327C427.38 455.329 427.318 455.329 427.256 455.327Z" fill="#E6E6E6"/>
<path d="M273.59 509.368L115.036 508.579C112.941 508.547 110.941 507.61 109.472 505.972C108.002 504.333 107.18 502.125 107.185 499.825C107.19 497.527 108.021 495.322 109.497 493.69C110.974 492.06 112.978 491.132 115.073 491.111L273.627 491.9C275.736 491.881 277.766 492.782 279.27 494.404C280.774 496.026 281.63 498.237 281.65 500.551C281.67 502.866 280.852 505.093 279.376 506.746C277.9 508.4 275.887 509.342 273.777 509.368C273.715 509.369 273.652 509.369 273.59 509.368Z" fill="#E6E6E6"/>
<path d="M188.583 164.197L111.733 163.407C110.718 163.374 109.748 162.434 109.036 160.791C108.324 159.148 107.925 156.933 107.928 154.627C107.93 152.323 108.333 150.112 109.048 148.475C109.764 146.84 110.735 145.911 111.751 145.889L188.601 146.68C189.622 146.662 190.607 147.565 191.336 149.192C192.065 150.819 192.48 153.036 192.49 155.356C192.5 157.676 192.102 159.911 191.387 161.569C190.671 163.226 189.696 164.171 188.673 164.198C188.643 164.198 188.613 164.198 188.583 164.197Z" fill="#E6E6E6"/>
<path d="M188.583 225.227L111.733 224.437C110.718 224.404 109.748 223.465 109.036 221.822C108.324 220.179 107.925 217.963 107.928 215.658C107.93 213.353 108.333 211.142 109.048 209.506C109.764 207.87 110.735 206.941 111.751 206.919L188.601 207.71C189.622 207.692 190.607 208.595 191.336 210.222C192.065 211.849 192.48 214.066 192.49 216.386C192.5 218.707 192.102 220.942 191.387 222.599C190.671 224.257 189.696 225.201 188.673 225.228C188.643 225.228 188.613 225.228 188.583 225.227Z" fill="#E6E6E6"/>
<path d="M188.583 283.816L111.733 283.026C110.718 282.994 109.748 282.054 109.036 280.411C108.324 278.768 107.925 276.552 107.928 274.247C107.93 271.942 108.333 269.732 109.048 268.095C109.764 266.459 110.735 265.53 111.751 265.508L188.601 266.299C189.622 266.281 190.607 267.184 191.336 268.811C192.065 270.438 192.48 272.655 192.49 274.975C192.5 277.296 192.102 279.531 191.387 281.188C190.671 282.846 189.696 283.791 188.673 283.817C188.643 283.817 188.613 283.817 188.583 283.816Z" fill="#E6E6E6"/>
<path d="M188.583 342.406L111.733 341.616C110.718 341.583 109.748 340.643 109.036 339C108.324 337.357 107.925 335.142 107.928 332.836C107.93 330.531 108.333 328.321 109.048 326.684C109.764 325.048 110.735 324.12 111.751 324.098L188.601 324.889C189.622 324.87 190.607 325.774 191.336 327.401C192.065 329.028 192.48 331.244 192.49 333.565C192.5 335.885 192.102 338.12 191.387 339.778C190.671 341.435 189.696 342.38 188.673 342.407C188.643 342.407 188.613 342.407 188.583 342.406Z" fill="#E6E6E6"/>
<path d="M273.472 565.85L114.918 565.061C112.823 565.03 110.823 564.092 109.354 562.454C107.884 560.815 107.062 558.607 107.067 556.307C107.072 554.009 107.903 551.804 109.379 550.172C110.856 548.542 112.86 547.614 114.955 547.593L273.509 548.382C275.618 548.363 277.648 549.266 279.152 550.888C280.656 552.509 281.512 554.719 281.532 557.033C281.552 559.348 280.734 561.575 279.258 563.228C277.782 564.882 275.769 565.824 273.659 565.85C273.597 565.851 273.534 565.851 273.472 565.85Z" fill="#E6E6E6"/>
<path d="M119.993 50.7042L103.111 13.5C101.912 10.7063 100.224 8.19888 98.1419 6.12092C96.06 4.04296 93.6254 2.43523 90.977 1.3895C88.3287 0.343771 85.5186 -0.119487 82.707 0.0261804C79.8955 0.171848 77.1377 0.923584 74.5909 2.23847C72.0443 3.55337 69.7587 5.40564 67.8645 7.68965C65.9703 9.97353 64.5047 12.6443 63.5515 15.5496C62.5983 18.4549 62.176 21.5377 62.3088 24.622C62.4415 27.7063 62.8651 28.1494 63.4214 31.2199H68.5472C66.7733 26.896 66.5928 21.9869 68.0434 17.5203C69.4941 13.0536 72.4634 9.37567 76.3299 7.25621L76.5498 7.1361C80.5542 5.03641 85.1548 4.76641 89.3408 6.3853C93.5266 8.00432 96.9554 11.3799 98.8741 15.7706L115.907 53.3065C117.186 56.2216 117.369 59.572 116.414 62.6332C115.459 65.6947 113.445 68.2211 110.807 69.6668L110.684 69.7341C108 71.1491 104.914 71.337 102.104 70.2569C99.294 69.1768 96.9899 66.917 95.698 63.974L78.9524 27.0075C78.2805 25.5387 78.1679 23.8372 78.6394 22.2774C79.111 20.7174 80.1282 19.427 81.467 18.6899C82.8059 17.9526 84.3569 17.8291 85.7788 18.3465C87.2007 18.8638 88.3771 19.9796 89.049 21.4483L93.921 32.1848C94.1996 32.7989 94.6893 33.2665 95.2822 33.4846C95.8752 33.7028 96.5228 33.6534 97.0826 33.3478C97.6425 33.042 98.0687 32.5049 98.2675 31.8544C98.4663 31.2039 98.4215 30.4934 98.1428 29.8792L93.2542 19.1062C92.6456 17.7708 91.8033 16.5801 90.7752 15.6018C89.7471 14.6236 88.5534 13.8772 87.2624 13.4049C85.9713 12.9328 84.6082 12.7442 83.2507 12.85C81.8932 12.9557 80.568 13.3539 79.3508 14.0214C78.1335 14.6891 77.048 15.6131 76.1563 16.7409C75.2647 17.8688 74.5841 19.1783 74.1538 20.5945C73.7233 22.0108 73.5514 23.5063 73.6478 24.9954C73.7442 26.4847 74.1072 27.9384 74.7157 29.2738L91.4663 66.2481C93.3065 70.4179 96.5794 73.6168 100.567 75.1428C104.554 76.6688 108.931 76.3972 112.737 74.3878L112.911 74.2919C116.66 72.237 119.522 68.6463 120.876 64.2961C122.231 59.946 121.971 55.1856 120.151 51.0441C120.095 50.9263 120.04 50.8052 119.993 50.7042Z" fill="#EF4444"/>
<path d="M426.722 529.007C426.729 535.889 425.611 542.717 423.419 549.166C422.423 552.118 421.203 554.975 419.769 557.703C415.16 566.525 408.508 573.856 400.488 578.956C392.468 584.054 383.364 586.738 374.094 586.738C364.824 586.738 355.718 584.054 347.698 578.956C339.678 573.856 333.028 566.525 328.418 557.703C327.952 556.815 327.509 555.914 327.091 555.001C323.514 547.216 321.59 538.643 321.464 529.926C321.337 521.209 323.012 512.574 326.363 504.668C329.713 496.762 334.653 489.792 340.809 484.279C346.965 478.767 354.181 474.855 361.912 472.837C369.643 470.821 377.691 470.75 385.451 472.632C393.211 474.514 400.481 478.3 406.717 483.704C412.952 489.108 417.992 495.992 421.456 503.838C424.921 511.684 426.722 520.29 426.722 529.007Z" fill="#E4E4E4"/>
<path d="M376.83 538.754C382.387 538.754 386.891 533.813 386.891 527.717C386.891 521.621 382.387 516.679 376.83 516.679C371.273 516.679 366.768 521.621 366.768 527.717C366.768 533.813 371.273 538.754 376.83 538.754Z" fill="#EF4444"/>
<path d="M327.091 555.001C331.524 549.745 337.451 541.401 343.009 547.43C345.798 550.274 350.163 557.322 354.342 552.714L386.975 516.916C387.589 516.251 388.319 515.726 389.12 515.374C389.922 515.023 390.779 514.851 391.643 514.868C392.506 514.883 393.357 515.09 394.147 515.473C394.936 515.856 395.648 516.408 396.24 517.098L423.419 549.166C422.423 552.118 421.203 554.974 419.769 557.702H328.418L327.091 555.001Z" fill="#3F3D56"/>
<path d="M104.59 62.8875C107.662 62.8875 110.153 60.155 110.153 56.7844C110.153 53.4138 107.662 50.6814 104.59 50.6814C101.517 50.6814 99.0264 53.4138 99.0264 56.7844C99.0264 60.155 101.517 62.8875 104.59 62.8875Z" fill="#EF4444"/>
<path d="M789.986 647.559H0V650H789.986V647.559Z" fill="#CCCCCC"/>
<path d="M694.839 347.089C695.811 345.804 696.515 344.3 696.901 342.684C697.287 341.068 697.345 339.378 697.073 337.736C696.799 336.093 696.2 334.534 695.318 333.172C694.437 331.809 693.293 330.677 691.969 329.852L698.688 289.916L680.974 298.143L677.309 334.805C676.193 337.338 675.962 340.232 676.661 342.938C677.36 345.644 678.939 347.975 681.099 349.489C683.26 351.004 685.853 351.596 688.385 351.152C690.917 350.711 693.213 349.265 694.839 347.089Z" fill="#FFB6B6"/>
<path d="M705.65 228.89L700.02 208.128L660.32 140.176C658.112 137.347 655.473 134.96 652.521 133.121C646.653 129.442 639.813 128.08 633.14 129.263C626.469 130.446 620.367 134.1 615.854 139.62C611.341 145.139 608.689 152.188 608.339 159.593C607.99 166.997 609.964 174.309 613.934 180.31C614.75 181.564 615.655 182.748 616.638 183.85L668.053 242.024L670.98 245.344L675.608 258.185L677.433 316.737L679.069 317.165L693.478 320.887L695.492 321.412L698.863 302.285L700.977 293.143C702.775 285.346 703.683 277.335 703.681 269.292C703.681 266.815 703.603 264.324 703.425 261.847L705.65 228.89Z" fill="#3F3D56"/>
<path d="M651.074 632.654H637.288L630.73 574.321L651.077 574.323L651.074 632.654Z" fill="#FFB6B6"/>
<path d="M650.707 627.712L635.998 621.157L635.564 620.962L627.442 627.712C622.984 627.711 618.698 629.599 615.479 632.98C612.259 636.362 610.354 640.977 610.162 645.862C610.14 646.131 610.14 646.412 610.14 646.692V647.315H654.59V627.712H650.707Z" fill="#2F2E41"/>
<path d="M624.821 602.487L612.939 610.156L580.319 563.531L597.855 552.212L624.821 602.487Z" fill="#FFB6B6"/>
<path d="M633.027 610.171L631.414 607.156L625.572 596.269L622.535 598.234L622.223 598.429L606.512 600.968L606.045 601.041L602.173 611.38C600.214 612.643 598.501 614.318 597.132 616.308C595.763 618.298 594.765 620.565 594.194 622.978C593.625 625.391 593.493 627.903 593.808 630.372C594.123 632.842 594.878 635.218 596.031 637.366L596.321 637.891L634.629 613.162L633.027 610.171Z" fill="#2F2E41"/>
<path d="M668.534 276.041C674.997 297.426 674.314 320.638 666.981 345.552L665.066 431.195L658.918 485.218C662.626 495.803 664.527 507.046 664.528 518.387C664.503 548.111 662.682 590.338 653.444 610.175H631.585L626.651 521.836L620.763 477.421L620.037 429.825L619.404 388.314L595.636 426.441L572.541 463.49L595.497 505.968L615.525 574.322L594.384 593.852L570.402 543.974L558.779 529.16L527.051 453.81L529.902 443.319C535.774 421.714 544.303 401.087 555.251 382.009L586.811 301.655L668.534 276.041Z" fill="#2F2E41"/>
<path d="M671.336 268.902L667.731 260.992L668.053 242.024L669.133 177.893C669.263 169.587 667.858 161.337 665.002 153.642C662.147 145.947 657.902 138.967 652.521 133.121C649.327 129.63 645.755 126.585 641.884 124.052L634.14 118.974L630.223 108.062L594.106 109.027L594.028 119.609L593.995 123.332L581.055 145.962L581.066 146.06L581.333 187.243L581.867 269.219L585.439 281.926L580.042 296.719L582.913 306.143L585.205 305.74L662.401 292.203C665.909 290.968 668.888 288.373 670.779 284.904C671.16 284.225 671.49 283.515 671.77 282.78C672.611 280.568 673.008 278.184 672.934 275.788C672.859 273.394 672.314 271.045 671.336 268.902Z" fill="#3F3D56"/>
<path d="M608.853 94.4885C626.978 94.4885 641.671 78.3695 641.671 58.4857C641.671 38.6019 626.978 22.4829 608.853 22.4829C590.727 22.4829 576.034 38.6019 576.034 58.4857C576.034 78.3695 590.727 94.4885 608.853 94.4885Z" fill="#FFB6B6"/>
<path d="M629.268 88.3183C632.734 85.6428 636.245 80.5496 638.583 76.7368C641.681 71.7244 643.785 66.0537 644.759 60.0922C645.731 54.1308 645.552 48.0115 644.231 42.1309C643.804 39.7781 642.801 37.5979 641.327 35.8251C640.574 34.9597 639.591 34.3778 638.518 34.163C637.445 33.948 636.338 34.111 635.355 34.6285C635.85 33.1084 636.057 31.493 635.961 29.8819C635.865 28.2708 635.47 26.6983 634.799 25.2614C633.436 22.3929 631.484 19.9119 629.095 18.0152C624.526 14.2645 619.117 11.9408 613.44 11.2908C607.764 10.6409 602.034 11.6888 596.857 14.3233C594.819 15.3965 598.085 7.29799 595.949 8.10652C593.829 9.0442 591.459 9.03455 589.345 8.07943C587.314 6.99577 580.709 13.7179 581.453 11.3778C579.931 12.1637 578.616 13.3594 577.629 14.8534C576.642 16.3475 576.016 18.0911 575.808 19.9223C575.601 21.7533 575.819 23.6122 576.443 25.3258C577.067 27.0393 578.076 28.5517 579.376 29.7223C581.089 31.2649 583.216 32.1358 585.086 33.4393C588.367 35.8975 590.714 39.5883 591.683 43.8148C592.653 48.0414 592.178 52.5111 590.35 56.3801C592.284 54.9753 594.411 53.9223 596.651 53.2617C597.775 52.9427 598.952 52.9227 600.085 53.2034C601.216 53.4841 602.271 54.0572 603.161 54.8752C603.907 55.7864 604.475 56.8552 604.831 58.0161C605.187 59.177 605.323 60.4055 605.231 61.6262C605.188 64.0703 604.689 66.485 604.66 68.9294C604.576 76.1017 601.247 89.7857 606.363 93.5198C610.4 96.4665 624.535 91.9712 629.268 88.3183Z" fill="#2F2E41"/>
<path d="M426.534 146.056C427.31 147.494 428.364 148.727 429.622 149.668C430.88 150.61 432.311 151.238 433.814 151.507C435.317 151.777 436.855 151.682 438.321 151.229C439.786 150.775 441.144 149.976 442.298 148.884L474.327 169.246L473.215 148.179L442.971 132.072C441.172 130.069 438.765 128.858 436.207 128.67C433.648 128.483 431.116 129.331 429.089 131.055C427.063 132.778 425.685 135.257 425.213 138.023C424.742 140.788 425.212 143.647 426.534 146.056Z" fill="#FFB6B6"/>
<path d="M633.372 139.749C632.129 135.489 630.097 131.556 627.402 128.199C624.708 124.842 621.41 122.132 617.715 120.24C614.019 118.349 610.008 117.317 605.932 117.208C601.855 117.1 597.802 117.916 594.028 119.609C593.672 119.768 593.316 119.939 592.96 120.11L521.906 155.593L494.245 151.992L458.44 138.272L457.528 139.822L449.483 153.457L448.359 155.361L486.768 180.273L490.841 181.201C494.387 182.005 497.752 183.57 500.747 185.805C503.741 188.04 506.303 190.901 508.287 194.225L523.174 199.596L581.333 187.243L613.934 180.31L615.781 179.919C621.367 177.561 626.172 173.401 629.562 167.989C632.952 162.577 634.769 156.166 634.774 149.599C634.775 146.256 634.302 142.933 633.372 139.749Z" fill="#3F3D56"/>
<path d="M576.78 644.572C585.648 621.783 591.901 596.981 588.941 572.434C587.927 564.111 585.718 556.016 582.398 548.449C579.724 542.28 576.27 536.557 572.14 531.446C570.712 529.643 568.752 528.448 566.603 528.069C564.453 527.689 562.25 528.15 560.38 529.371C560.09 529.554 559.801 529.749 559.534 529.957C558.085 531.076 556.943 532.608 556.229 534.388C556.09 534.728 555.976 535.079 555.883 535.438C555.475 536.936 555.365 538.513 555.562 540.064C557.121 552.696 556.782 565.524 554.56 578.037C553.993 581.223 553.299 584.38 552.479 587.509C550.638 584.988 548.681 582.571 546.616 580.27C541.26 574.316 535.083 569.324 528.313 565.477H528.302C528.268 565.452 528.245 565.44 528.212 565.416C520 560.826 509.053 562.73 502.655 565.855C502.232 566.05 501.83 566.27 501.441 566.478C498.103 568.357 496.446 570.518 497.87 571.934C498.193 572.239 498.516 572.556 498.816 572.874C508.515 582.71 516.461 594.44 522.249 607.466V607.478C524.549 612.663 526.487 618.034 528.046 623.541C530.193 631.145 531.973 639.58 536.168 645.78C536.597 646.434 537.06 647.057 537.559 647.648L575.033 647.318C575.122 647.27 575.199 647.233 575.288 647.184L576.78 647.245C576.724 646.952 576.657 646.659 576.591 646.366V646.342C576.558 646.183 576.512 646.012 576.479 645.866C576.445 645.744 576.423 645.634 576.401 645.536C576.467 645.353 576.534 645.182 576.612 644.999C576.668 644.853 576.724 644.719 576.78 644.572Z" fill="#F0F0F0"/>
<path d="M576.78 644.572C585.648 621.783 591.901 596.981 588.941 572.434C587.927 564.111 585.718 556.016 582.398 548.449C579.724 542.28 576.27 536.557 572.14 531.446C570.712 529.643 568.752 528.448 566.603 528.069C564.453 527.689 562.25 528.15 560.38 529.371C560.09 529.554 559.801 529.749 559.534 529.957C558.085 531.076 556.943 532.608 556.229 534.388C556.09 534.728 555.976 535.079 555.883 535.438C555.475 536.936 555.365 538.513 555.562 540.064C557.121 552.696 556.782 565.524 554.56 578.037C553.993 581.223 553.299 584.38 552.479 587.509C550.638 584.988 548.681 582.571 546.616 580.27C541.26 574.316 535.083 569.324 528.313 565.477H528.302C528.268 565.452 528.245 565.44 528.212 565.416C520 560.826 509.053 562.73 502.655 565.855C502.232 566.05 501.83 566.27 501.441 566.478C498.103 568.357 496.446 570.518 497.87 571.934C498.193 572.239 498.516 572.556 498.816 572.874C508.515 582.71 516.461 594.44 522.249 607.466V607.478C524.549 612.663 526.487 618.034 528.046 623.541C530.193 631.145 531.973 639.58 536.168 645.78C536.597 646.434 537.06 647.057 537.559 647.648L575.033 647.318C575.122 647.27 575.199 647.233 575.288 647.184L576.78 647.245C576.724 646.952 576.657 646.659 576.591 646.366V646.342C576.558 646.183 576.512 646.012 576.479 645.866C576.445 645.744 576.423 645.634 576.401 645.536C576.467 645.353 576.534 645.182 576.612 644.999C576.668 644.853 576.724 644.719 576.78 644.572Z" fill="#F0F0F0"/>
<path d="M576.59 646.342C576.579 646.433 576.546 646.52 576.495 646.593C576.444 646.667 576.377 646.724 576.3 646.762C576.223 646.798 576.139 646.812 576.055 646.803C575.971 646.793 575.891 646.761 575.822 646.708C574.282 645.483 572.593 644.5 570.804 643.791C570.793 643.779 570.793 643.791 570.793 643.791C568.535 642.9 566.213 642.222 563.85 641.765C563.828 641.765 563.816 641.752 563.794 641.752C562.837 641.545 561.88 641.362 560.924 641.167C556.273 640.227 551.544 639.091 547.516 636.186C545.877 635.072 544.472 633.59 543.392 631.839C542.312 630.086 541.583 628.102 541.252 626.019C540.662 621.93 541.408 617.816 541.719 613.739C541.741 613.446 541.764 613.141 541.775 612.848C541.797 612.47 541.808 612.104 541.808 611.738C541.923 608.037 541.245 604.358 539.828 600.996C538.008 596.972 535.619 593.289 532.751 590.084C531.271 588.339 529.729 586.658 528.122 585.043H528.111C528.045 584.97 527.989 584.909 527.922 584.848C527.922 584.835 527.911 584.823 527.9 584.811C521.034 577.967 513.246 572.327 504.812 568.089C504.512 567.942 504.2 567.784 503.889 567.637C503.077 567.234 502.264 566.856 501.441 566.478C501.83 566.27 502.231 566.05 502.654 565.855C512.061 570.22 520.743 576.267 528.345 583.749C528.601 583.993 528.857 584.25 529.102 584.506C531.026 586.459 532.859 588.505 534.598 590.646C537.38 593.933 539.634 597.713 541.263 601.826C542.458 605.155 542.985 608.726 542.809 612.299C542.787 612.983 542.743 613.666 542.687 614.362C542.342 618.475 541.574 622.723 542.431 626.837C543.41 631.524 546.726 634.795 550.576 636.797C553.125 638.043 555.799 638.952 558.542 639.506C564.217 640.813 570.081 641.447 575.043 644.792H575.054C575.132 644.853 575.21 644.902 575.277 644.95C575.288 644.95 575.288 644.95 575.288 644.963C575.647 645.196 575.992 645.453 576.323 645.732C576.345 645.744 576.367 645.768 576.389 645.78C576.422 645.806 576.452 645.834 576.478 645.866C576.531 645.929 576.567 646.006 576.586 646.089C576.606 646.172 576.608 646.258 576.59 646.342Z" fill="white"/>
<path d="M528.81 584.925C530.832 582.173 531.896 578.724 531.814 575.191C531.732 571.659 530.507 568.273 528.359 565.64C527.923 565.108 527.15 565.827 527.587 566.359C529.591 568.808 530.732 571.96 530.802 575.251C530.873 578.541 529.869 581.75 527.972 584.298C527.56 584.853 528.401 585.475 528.81 584.925Z" fill="white"/>
<path d="M504.879 567.954C504.857 568.003 504.836 568.04 504.813 568.089C504.199 569.324 503.344 570.396 502.307 571.223C501.268 572.051 500.077 572.615 498.815 572.873C498.515 572.556 498.193 572.239 497.87 571.934C497.92 571.898 497.977 571.877 498.036 571.873C499.249 571.726 500.412 571.266 501.429 570.529C502.447 569.793 503.29 568.801 503.889 567.637C503.944 567.539 504 567.43 504.045 567.332C504.082 567.271 504.13 567.22 504.185 567.179C504.24 567.139 504.303 567.111 504.367 567.097C504.433 567.084 504.5 567.085 504.565 567.1C504.63 567.115 504.691 567.144 504.747 567.185C504.853 567.271 504.926 567.398 504.951 567.541C504.976 567.683 504.95 567.831 504.879 567.954Z" fill="white"/>
<path d="M576.779 644.572C576.783 644.652 576.771 644.733 576.742 644.806C576.713 644.881 576.669 644.947 576.612 644.999C576.524 645.071 576.421 645.117 576.312 645.133C576.201 645.159 576.087 645.136 575.991 645.07C575.895 645.004 575.828 644.899 575.8 644.779C574.264 639.116 570.504 634.77 566.943 630.51C563.739 626.69 560.59 622.662 558.976 617.694C558.278 615.72 557.968 613.606 558.068 611.492C558.167 609.378 558.675 607.31 559.555 605.427C560.11 604.3 560.753 603.23 561.48 602.229C563.071 600.007 564.962 598.03 566.665 595.931C566.843 595.711 567.021 595.479 567.188 595.259C567.421 594.979 567.634 594.686 567.834 594.393C569.956 591.513 571.43 588.126 572.139 584.506C572.899 580.091 573.016 575.571 572.484 571.116C572.263 568.748 571.954 566.396 571.561 564.061C571.538 563.951 571.527 563.853 571.505 563.755C569.788 553.738 566.665 544.074 562.248 535.108C562.081 534.778 561.925 534.449 561.758 534.131C561.046 532.715 560.312 531.324 559.533 529.957C559.8 529.749 560.089 529.554 560.378 529.371C562.931 533.903 565.152 538.65 567.021 543.567C569.439 549.873 571.255 556.439 572.44 563.157C572.517 563.523 572.574 563.902 572.63 564.268C573.097 567.088 573.441 569.944 573.652 572.788C574.071 577.249 573.793 581.757 572.829 586.117C571.957 589.575 570.412 592.785 568.3 595.528C567.922 596.053 567.522 596.565 567.099 597.066C565.408 599.092 563.538 601.057 562.014 603.266C561.236 604.376 560.575 605.581 560.046 606.855C558.254 611.249 559.099 616.058 561.079 620.184C564.662 627.691 571.495 632.805 575.133 640.165C575.804 641.52 576.349 642.948 576.757 644.425C576.77 644.473 576.778 644.522 576.779 644.572Z" fill="white"/>
<path d="M572.169 564.396C575.293 563.536 578.036 561.485 579.909 558.61C581.782 555.735 582.663 552.223 582.393 548.702C582.337 547.989 581.324 548.052 581.382 548.766C581.638 552.045 580.818 555.315 579.069 557.989C577.32 560.663 574.757 562.562 571.843 563.344C571.211 563.515 571.539 564.567 572.169 564.396Z" fill="white"/>
<path d="M568.11 594.575C562.43 590.92 558.214 585.052 556.303 578.139C556.113 577.455 555.154 577.812 555.344 578.496C557.344 585.685 561.744 591.782 567.662 595.571C568.226 595.931 568.671 594.933 568.11 594.575Z" fill="white"/>
<path d="M562.37 535.047C562.325 535.071 562.292 535.084 562.248 535.108C560.244 536.11 557.965 536.228 555.883 535.438C555.976 535.079 556.09 534.728 556.228 534.388C558.036 535.068 560.01 534.976 561.758 534.131C561.858 534.095 561.948 534.046 562.048 533.997C562.175 533.948 562.313 533.958 562.435 534.022C562.556 534.086 562.648 534.2 562.693 534.339C562.729 534.479 562.717 534.631 562.657 534.761C562.597 534.892 562.495 534.994 562.37 535.047Z" fill="white"/>
<path d="M712.9 645.04C703.175 616.674 696.317 585.802 699.563 555.249C700.676 544.889 703.098 534.813 706.739 525.394C709.671 517.716 713.459 510.592 717.988 504.23C719.555 501.986 721.704 500.499 724.061 500.026C726.419 499.554 728.835 500.128 730.886 501.648C731.203 501.875 731.521 502.119 731.814 502.377C733.402 503.77 734.655 505.677 735.438 507.892C735.59 508.316 735.716 508.752 735.817 509.198C736.265 511.064 736.386 513.027 736.17 514.957C734.46 530.68 734.831 546.648 737.268 562.222C737.89 566.188 738.652 570.118 739.551 574.012C741.569 570.875 743.716 567.867 745.98 565.003C751.854 557.591 758.628 551.378 766.053 546.589H766.065C766.102 546.558 766.127 546.543 766.164 546.513C775.169 540.8 787.175 543.17 794.191 547.06C794.655 547.303 795.095 547.576 795.522 547.835C799.183 550.174 801 552.863 799.438 554.626C799.084 555.006 798.73 555.401 798.401 555.796C787.764 568.04 779.051 582.64 772.703 598.853V598.868C770.181 605.322 768.055 612.007 766.346 618.862C763.991 628.328 762.038 638.826 757.438 646.544C756.968 647.357 756.459 648.133 755.913 648.869L714.816 648.458C714.718 648.398 714.634 648.352 714.537 648.291L712.9 648.367C712.961 648.003 713.036 647.638 713.108 647.273V647.243C713.144 647.045 713.194 646.833 713.231 646.65C713.267 646.498 713.292 646.362 713.316 646.24C713.243 646.012 713.17 645.8 713.084 645.572C713.023 645.389 712.961 645.222 712.9 645.04Z" fill="#F0F0F0"/>
<path d="M713.109 647.243C713.121 647.357 713.156 647.464 713.213 647.556C713.269 647.647 713.342 647.718 713.426 647.765C713.512 647.811 713.603 647.828 713.696 647.817C713.787 647.805 713.875 647.764 713.951 647.698C715.64 646.173 717.492 644.95 719.454 644.067C719.466 644.052 719.466 644.067 719.466 644.067C721.942 642.958 724.489 642.115 727.08 641.545C727.105 641.545 727.117 641.53 727.141 641.53C728.191 641.272 729.24 641.044 730.289 640.801C735.39 639.631 740.576 638.218 744.993 634.602C746.79 633.215 748.332 631.37 749.515 629.19C750.7 627.008 751.499 624.54 751.863 621.946C752.51 616.856 751.692 611.736 751.35 606.662C751.326 606.297 751.302 605.917 751.289 605.553C751.265 605.082 751.253 604.626 751.253 604.17C751.127 599.564 751.87 594.984 753.425 590.8C755.42 585.791 758.04 581.207 761.185 577.218C762.808 575.045 764.499 572.953 766.261 570.943H766.274C766.347 570.852 766.408 570.776 766.481 570.7C766.481 570.685 766.493 570.669 766.505 570.654C774.035 562.135 782.576 555.115 791.825 549.84C792.154 549.657 792.496 549.46 792.838 549.278C793.729 548.776 794.619 548.305 795.522 547.834C795.095 547.576 794.656 547.302 794.192 547.059C783.875 552.492 774.354 560.019 766.017 569.332C765.737 569.636 765.456 569.955 765.188 570.274C763.077 572.705 761.067 575.252 759.16 577.917C756.109 582.008 753.637 586.713 751.851 591.833C750.54 595.977 749.962 600.422 750.155 604.869C750.179 605.72 750.228 606.571 750.289 607.437C750.667 612.557 751.509 617.844 750.569 622.964C749.496 628.798 745.859 632.87 741.638 635.362C738.842 636.913 735.91 638.045 732.901 638.735C726.678 640.36 720.247 641.15 714.805 645.313H714.793C714.707 645.389 714.622 645.45 714.549 645.511C714.536 645.511 714.537 645.511 714.537 645.526C714.142 645.816 713.764 646.137 713.402 646.483C713.377 646.498 713.353 646.529 713.328 646.544C713.293 646.576 713.26 646.611 713.231 646.65C713.174 646.729 713.133 646.825 713.113 646.928C713.091 647.031 713.089 647.138 713.109 647.243Z" fill="white"/>
<path d="M765.508 570.796C763.29 567.371 762.123 563.078 762.213 558.681C762.303 554.284 763.647 550.069 766.002 546.792C766.48 546.13 767.328 547.025 766.849 547.687C764.651 550.735 763.4 554.659 763.323 558.755C763.245 562.85 764.346 566.844 766.426 570.016C766.878 570.706 765.957 571.481 765.508 570.796Z" fill="white"/>
<path d="M791.752 549.673C791.776 549.733 791.799 549.779 791.824 549.84C792.497 551.377 793.436 552.711 794.573 553.741C795.711 554.771 797.018 555.473 798.402 555.795C798.731 555.4 799.084 555.005 799.438 554.626C799.383 554.582 799.321 554.556 799.256 554.55C797.926 554.367 796.651 553.795 795.536 552.877C794.419 551.961 793.494 550.727 792.838 549.278C792.777 549.156 792.716 549.019 792.667 548.898C792.626 548.822 792.573 548.758 792.513 548.708C792.452 548.658 792.384 548.623 792.313 548.606C792.241 548.589 792.168 548.591 792.096 548.609C792.025 548.627 791.958 548.664 791.897 548.716C791.78 548.822 791.701 548.98 791.673 549.158C791.646 549.335 791.674 549.519 791.752 549.673Z" fill="white"/>
<path d="M712.901 645.04C712.897 645.14 712.91 645.241 712.942 645.332C712.973 645.425 713.022 645.507 713.085 645.572C713.181 645.662 713.294 645.719 713.414 645.739C713.535 645.771 713.66 645.742 713.765 645.66C713.87 645.578 713.945 645.447 713.975 645.298C715.659 638.249 719.783 632.84 723.688 627.538C727.202 622.782 730.656 617.769 732.425 611.585C733.191 609.128 733.53 606.497 733.421 603.865C733.312 601.234 732.756 598.66 731.79 596.316C731.182 594.914 730.476 593.581 729.679 592.335C727.935 589.57 725.86 587.109 723.993 584.496C723.798 584.222 723.603 583.934 723.42 583.66C723.163 583.311 722.93 582.946 722.711 582.581C720.384 578.997 718.767 574.781 717.99 570.275C717.156 564.78 717.028 559.154 717.611 553.608C717.854 550.661 718.192 547.733 718.624 544.826C718.649 544.69 718.661 544.568 718.685 544.447C720.568 531.978 723.993 519.949 728.837 508.788C729.02 508.378 729.191 507.968 729.374 507.573C730.155 505.811 730.961 504.079 731.815 502.377C731.522 502.119 731.205 501.876 730.887 501.648C728.088 507.289 725.653 513.198 723.603 519.317C720.951 527.168 718.96 535.34 717.66 543.702C717.575 544.158 717.513 544.629 717.452 545.085C716.939 548.594 716.562 552.15 716.33 555.69C715.871 561.243 716.176 566.853 717.233 572.28C718.19 576.585 719.884 580.58 722.199 583.994C722.614 584.648 723.054 585.286 723.517 585.909C725.372 588.431 727.422 590.877 729.094 593.627C729.947 595.008 730.671 596.507 731.252 598.094C733.217 603.563 732.291 609.549 730.119 614.684C726.19 624.028 718.696 630.394 714.706 639.555C713.97 641.242 713.372 643.019 712.926 644.858C712.911 644.917 712.903 644.978 712.901 645.04Z" fill="white"/>
<path d="M717.957 545.244C714.53 544.173 711.523 541.62 709.469 538.041C707.414 534.463 706.449 530.092 706.744 525.709C706.806 524.821 707.917 524.9 707.853 525.789C707.573 529.87 708.472 533.94 710.39 537.269C712.308 540.596 715.119 542.96 718.314 543.934C719.008 544.147 718.648 545.457 717.957 545.244Z" fill="white"/>
<path d="M722.408 582.807C728.637 578.258 733.261 570.954 735.357 562.35C735.564 561.497 736.616 561.942 736.409 562.793C734.215 571.742 729.39 579.331 722.9 584.047C722.281 584.495 721.793 583.252 722.408 582.807Z" fill="white"/>
<path d="M728.703 508.712C728.752 508.742 728.789 508.758 728.838 508.788C731.035 510.035 733.534 510.183 735.817 509.198C735.716 508.751 735.59 508.315 735.439 507.892C733.456 508.738 731.291 508.624 729.374 507.572C729.265 507.527 729.166 507.466 729.056 507.405C728.917 507.345 728.766 507.357 728.633 507.436C728.5 507.516 728.398 507.658 728.349 507.831C728.309 508.006 728.323 508.194 728.388 508.356C728.454 508.519 728.567 508.647 728.703 508.712Z" fill="white"/>
<path d="M173.241 80.7415C173.241 81.099 173.225 81.4029 173.192 81.6533C173.171 81.8916 173.127 82.0824 173.061 82.2255C173.007 82.3685 172.942 82.4758 172.866 82.5472C172.79 82.6188 172.703 82.6545 172.605 82.6545H165.711V88.8768H172.181C172.279 88.8768 172.366 88.9066 172.442 88.9662C172.519 89.0258 172.583 89.1272 172.638 89.2702C172.703 89.4132 172.747 89.6039 172.768 89.8423C172.801 90.0807 172.817 90.3788 172.817 90.7363C172.817 91.0939 172.801 91.3919 172.768 91.6304C172.747 91.8688 172.703 92.0654 172.638 92.2203C172.583 92.3753 172.519 92.4886 172.442 92.5601C172.366 92.6197 172.279 92.6495 172.181 92.6495H165.711V101.268C165.711 101.399 165.678 101.512 165.613 101.607C165.548 101.703 165.429 101.786 165.254 101.858C165.092 101.917 164.875 101.965 164.603 102.001C164.33 102.036 163.983 102.054 163.559 102.054C163.147 102.054 162.798 102.036 162.517 102.001C162.244 101.965 162.027 101.917 161.865 101.858C161.701 101.786 161.582 101.703 161.505 101.607C161.441 101.512 161.408 101.399 161.408 101.268V80.2943C161.408 79.77 161.528 79.3944 161.767 79.168C162.016 78.9296 162.321 78.8103 162.679 78.8103H172.605C172.703 78.8103 172.79 78.8461 172.866 78.9176C172.942 78.9772 173.007 79.0845 173.061 79.2395C173.127 79.3826 173.171 79.5792 173.192 79.8295C173.225 80.0799 173.241 80.3838 173.241 80.7415ZM190.762 93.2037C190.762 94.5626 190.599 95.8023 190.273 96.9228C189.947 98.0433 189.453 99.0088 188.79 99.8193C188.127 100.63 187.296 101.256 186.297 101.697C185.296 102.138 184.128 102.358 182.792 102.358C181.499 102.358 180.374 102.162 179.418 101.768C178.462 101.375 177.669 100.803 177.038 100.052C176.408 99.3008 175.941 98.3771 175.637 97.2805C175.332 96.1837 175.18 94.9321 175.18 93.5256C175.18 92.1667 175.344 90.9271 175.67 89.8066C176.007 88.6742 176.506 87.7087 177.168 86.9101C177.831 86.0994 178.657 85.4736 179.646 85.0326C180.645 84.5915 181.814 84.3711 183.15 84.3711C184.454 84.3711 185.584 84.5677 186.54 84.9611C187.497 85.3425 188.285 85.9088 188.903 86.6597C189.534 87.4106 190.002 88.3345 190.305 89.4311C190.61 90.5277 190.762 91.7853 190.762 93.2037ZM186.54 93.3826C186.54 92.5959 186.481 91.8746 186.361 91.219C186.253 90.5516 186.063 89.9734 185.79 89.4847C185.519 88.9959 185.155 88.6145 184.699 88.3404C184.254 88.0662 183.688 87.9291 183.004 87.9291C182.396 87.9291 181.863 88.0544 181.406 88.3046C180.95 88.5431 180.575 88.9006 180.282 89.3774C179.989 89.8423 179.765 90.4086 179.614 91.0761C179.473 91.7317 179.401 92.4826 179.401 93.329C179.401 94.1157 179.461 94.8428 179.581 95.5103C179.701 96.1659 179.891 96.738 180.151 97.2267C180.423 97.7155 180.787 98.0969 181.244 98.3711C181.7 98.6334 182.265 98.7645 182.939 98.7645C183.558 98.7645 184.096 98.6452 184.552 98.4068C185.008 98.1565 185.383 97.799 185.677 97.334C185.971 96.8691 186.187 96.309 186.329 95.6534C186.47 94.9858 186.54 94.2289 186.54 93.3826ZM203.361 86.8743C203.361 87.3033 203.35 87.655 203.328 87.9291C203.307 88.2033 203.273 88.4179 203.23 88.5729C203.187 88.7278 203.128 88.8351 203.051 88.8946C202.986 88.9543 202.898 88.9841 202.791 88.9841C202.704 88.9841 202.606 88.9662 202.497 88.9304C202.388 88.8828 202.263 88.8351 202.122 88.7875C201.992 88.7397 201.845 88.698 201.682 88.6622C201.519 88.6145 201.34 88.5907 201.144 88.5907C200.916 88.5907 200.688 88.6444 200.46 88.7517C200.231 88.847 199.992 89.0019 199.743 89.2165C199.504 89.4311 199.248 89.7172 198.976 90.0747C198.716 90.4324 198.433 90.8734 198.129 91.3979V101.339C198.129 101.458 198.096 101.566 198.031 101.661C197.966 101.744 197.851 101.816 197.689 101.876C197.537 101.935 197.331 101.977 197.069 102.001C196.809 102.036 196.477 102.054 196.076 102.054C195.673 102.054 195.341 102.036 195.081 102.001C194.821 101.977 194.608 101.935 194.446 101.876C194.293 101.816 194.184 101.744 194.12 101.661C194.054 101.566 194.022 101.458 194.022 101.339V85.3901C194.022 85.271 194.048 85.1697 194.103 85.0862C194.157 84.9909 194.255 84.9134 194.397 84.8538C194.538 84.7942 194.717 84.7525 194.934 84.7287C195.162 84.6929 195.445 84.675 195.782 84.675C196.129 84.675 196.417 84.6929 196.645 84.7287C196.873 84.7525 197.048 84.7942 197.167 84.8538C197.297 84.9134 197.39 84.9909 197.444 85.0862C197.499 85.1697 197.525 85.271 197.525 85.3901V87.3749C197.906 86.7788 198.264 86.2902 198.601 85.9088C198.939 85.5154 199.259 85.2055 199.563 84.9789C199.868 84.7525 200.171 84.5975 200.476 84.5141C200.78 84.4187 201.085 84.3711 201.389 84.3711C201.53 84.3711 201.682 84.383 201.845 84.4068C202.008 84.4187 202.176 84.4486 202.35 84.4962C202.525 84.5319 202.676 84.5797 202.806 84.6392C202.937 84.687 203.03 84.7405 203.083 84.8001C203.149 84.8598 203.192 84.9253 203.214 84.9969C203.247 85.0684 203.273 85.1697 203.296 85.3008C203.317 85.42 203.334 85.6047 203.345 85.8551C203.356 86.1054 203.361 86.4451 203.361 86.8743ZM229.015 101.339C229.015 101.458 228.982 101.566 228.917 101.661C228.852 101.744 228.743 101.816 228.591 101.876C228.44 101.935 228.233 101.977 227.972 102.001C227.711 102.036 227.379 102.054 226.977 102.054C226.565 102.054 226.228 102.036 225.967 102.001C225.707 101.977 225.494 101.935 225.332 101.876C225.179 101.816 225.07 101.744 225.006 101.661C224.951 101.566 224.924 101.458 224.924 101.339V91.8806C224.924 91.3443 224.875 90.8555 224.778 90.4145C224.69 89.9734 224.549 89.5979 224.354 89.288C224.169 88.9662 223.93 88.7218 223.636 88.5549C223.354 88.3761 223.012 88.2868 222.609 88.2868C222.121 88.2868 221.627 88.4954 221.126 88.9126C220.626 89.3298 220.083 89.9376 219.496 90.7363V101.339C219.496 101.458 219.464 101.566 219.399 101.661C219.334 101.744 219.219 101.816 219.056 101.876C218.904 101.935 218.698 101.977 218.437 102.001C218.176 102.036 217.85 102.054 217.459 102.054C217.057 102.054 216.725 102.036 216.465 102.001C216.204 101.977 215.992 101.935 215.83 101.876C215.677 101.816 215.568 101.744 215.504 101.661C215.438 101.566 215.406 101.458 215.406 101.339V91.8806C215.406 91.3443 215.357 90.8555 215.259 90.4145C215.172 89.9734 215.036 89.5979 214.852 89.288C214.667 88.9662 214.428 88.7218 214.134 88.5549C213.84 88.3761 213.499 88.2868 213.107 88.2868C212.608 88.2868 212.108 88.4954 211.608 88.9126C211.108 89.3298 210.57 89.9376 209.994 90.7363V101.339C209.994 101.458 209.962 101.566 209.897 101.661C209.831 101.744 209.717 101.816 209.554 101.876C209.402 101.935 209.196 101.977 208.935 102.001C208.674 102.036 208.343 102.054 207.941 102.054C207.538 102.054 207.208 102.036 206.946 102.001C206.686 101.977 206.473 101.935 206.311 101.876C206.159 101.816 206.051 101.744 205.985 101.661C205.919 101.566 205.887 101.458 205.887 101.339V85.3901C205.887 85.271 205.914 85.1697 205.968 85.0862C206.023 84.9909 206.121 84.9134 206.262 84.8538C206.403 84.7942 206.582 84.7525 206.799 84.7287C207.028 84.6929 207.31 84.675 207.647 84.675C207.996 84.675 208.283 84.6929 208.511 84.7287C208.739 84.7525 208.914 84.7942 209.033 84.8538C209.163 84.9134 209.255 84.9909 209.31 85.0862C209.364 85.1697 209.391 85.271 209.391 85.3901V87.2318C210.195 86.2783 210.994 85.563 211.787 85.0862C212.591 84.6094 213.428 84.3711 214.298 84.3711C214.895 84.3711 215.433 84.4426 215.911 84.5856C216.388 84.7167 216.812 84.9134 217.182 85.1757C217.562 85.4259 217.888 85.73 218.16 86.0875C218.431 86.4451 218.66 86.8445 218.845 87.2855C219.279 86.773 219.703 86.3318 220.116 85.9624C220.54 85.5929 220.952 85.2948 221.354 85.0684C221.767 84.83 222.175 84.6572 222.577 84.5499C222.99 84.4306 223.408 84.3711 223.832 84.3711C224.799 84.3711 225.614 84.5499 226.277 84.9074C226.94 85.265 227.472 85.7538 227.874 86.3736C228.287 86.9816 228.581 87.6967 228.754 88.5192C228.928 89.3417 229.015 90.2118 229.015 91.1297V101.339ZM255.288 85.8373C255.288 87.1365 255.103 88.2868 254.734 89.288C254.364 90.2893 253.827 91.1357 253.12 91.827C252.414 92.5064 251.545 93.0249 250.512 93.3826C249.491 93.7402 248.285 93.919 246.894 93.919H245.134V101.303C245.134 101.423 245.096 101.53 245.02 101.625C244.955 101.721 244.841 101.798 244.678 101.858C244.515 101.917 244.297 101.965 244.026 102.001C243.754 102.036 243.407 102.054 242.983 102.054C242.57 102.054 242.222 102.036 241.939 102.001C241.668 101.965 241.451 101.917 241.287 101.858C241.125 101.798 241.01 101.721 240.946 101.625C240.88 101.53 240.848 101.423 240.848 101.303V80.4911C240.848 79.9309 240.978 79.5137 241.238 79.2395C241.511 78.9534 241.864 78.8103 242.299 78.8103H247.269C247.77 78.8103 248.241 78.8343 248.688 78.8819C249.144 78.9176 249.687 79.0071 250.318 79.15C250.947 79.2812 251.583 79.5315 252.225 79.9011C252.876 80.2705 253.431 80.7415 253.887 81.3136C254.343 81.8738 254.69 82.5354 254.93 83.2983C255.169 84.0492 255.288 84.8956 255.288 85.8373ZM250.806 86.177C250.806 85.3663 250.676 84.6988 250.416 84.1744C250.154 83.6499 249.834 83.2625 249.453 83.0122C249.073 82.7618 248.671 82.6069 248.247 82.5472C247.834 82.4758 247.405 82.4401 246.96 82.4401H245.134V90.2893H247.058C247.742 90.2893 248.313 90.188 248.769 89.9854C249.236 89.7828 249.617 89.5026 249.909 89.145C250.203 88.7755 250.426 88.3404 250.578 87.8398C250.73 87.3272 250.806 86.773 250.806 86.177ZM271.245 92.8998C271.245 93.4481 271.131 93.8534 270.903 94.1157C270.685 94.3778 270.381 94.5089 269.989 94.5089H261.139C261.139 95.1885 261.211 95.8083 261.352 96.3685C261.503 96.9168 261.737 97.3876 262.053 97.781C262.378 98.1625 262.792 98.4546 263.291 98.6572C263.802 98.8598 264.411 98.9611 265.116 98.9611C265.834 98.9611 266.463 98.9075 267.008 98.8002C267.551 98.681 268.018 98.5559 268.408 98.4248C268.811 98.2817 269.143 98.1565 269.403 98.0492C269.663 97.9301 269.876 97.8705 270.038 97.8705C270.136 97.8705 270.218 97.8943 270.283 97.942C270.349 97.9777 270.402 98.0492 270.446 98.1565C270.49 98.2638 270.517 98.4188 270.528 98.6214C270.549 98.8121 270.56 99.0564 270.56 99.3545C270.56 99.6167 270.555 99.8432 270.544 100.034C270.534 100.213 270.517 100.368 270.495 100.499C270.473 100.63 270.441 100.743 270.398 100.839C270.353 100.922 270.294 101.005 270.218 101.089C270.153 101.172 269.963 101.286 269.648 101.429C269.332 101.572 268.93 101.715 268.442 101.858C267.952 101.989 267.393 102.102 266.763 102.197C266.133 102.305 265.459 102.358 264.742 102.358C263.448 102.358 262.313 102.179 261.335 101.822C260.368 101.464 259.558 100.922 258.906 100.195C258.254 99.4678 257.766 98.5499 257.44 97.4413C257.125 96.3328 256.967 95.0334 256.967 93.5434C256.967 92.125 257.136 90.8496 257.472 89.7172C257.809 88.5729 258.299 87.6074 258.94 86.8206C259.581 86.0219 260.357 85.4141 261.27 84.9969C262.193 84.5797 263.231 84.3711 264.383 84.3711C265.6 84.3711 266.638 84.5677 267.496 84.9611C268.365 85.3544 269.077 85.9028 269.631 86.606C270.185 87.2973 270.593 88.1199 270.854 89.0735C271.114 90.0271 271.245 91.0641 271.245 92.1847V92.8998ZM267.268 91.6124C267.3 90.3489 267.066 89.3596 266.567 88.6444C266.078 87.9173 265.317 87.5537 264.285 87.5537C263.764 87.5537 263.307 87.661 262.916 87.8756C262.536 88.0901 262.215 88.3821 261.955 88.7517C261.705 89.1092 261.509 89.5384 261.367 90.039C261.237 90.5277 261.162 91.0522 261.139 91.6124H267.268ZM288.522 101.339C288.522 101.458 288.488 101.566 288.424 101.661C288.358 101.744 288.249 101.816 288.098 101.876C287.946 101.935 287.734 101.977 287.461 102.001C287.201 102.036 286.875 102.054 286.485 102.054C286.082 102.054 285.745 102.036 285.473 102.001C285.213 101.977 285.006 101.935 284.855 101.876C284.702 101.816 284.593 101.744 284.529 101.661C284.463 101.566 284.431 101.458 284.431 101.339V92.2382C284.431 91.4634 284.376 90.8555 284.267 90.4145C284.169 89.9734 284.023 89.5979 283.828 89.288C283.632 88.9662 283.377 88.7218 283.061 88.5549C282.757 88.3761 282.399 88.2868 281.986 88.2868C281.464 88.2868 280.937 88.4954 280.405 88.9126C279.872 89.3298 279.318 89.9376 278.743 90.7363V101.339C278.743 101.458 278.709 101.566 278.645 101.661C278.579 101.744 278.466 101.816 278.302 101.876C278.15 101.935 277.944 101.977 277.682 102.001C277.422 102.036 277.09 102.054 276.689 102.054C276.286 102.054 275.956 102.036 275.694 102.001C275.434 101.977 275.221 101.935 275.059 101.876C274.906 101.816 274.798 101.744 274.733 101.661C274.667 101.566 274.635 101.458 274.635 101.339V85.3901C274.635 85.271 274.663 85.1697 274.716 85.0862C274.771 84.9909 274.868 84.9134 275.01 84.8538C275.151 84.7942 275.33 84.7525 275.547 84.7287C275.776 84.6929 276.058 84.675 276.395 84.675C276.743 84.675 277.03 84.6929 277.26 84.7287C277.488 84.7525 277.661 84.7942 277.78 84.8538C277.91 84.9134 278.003 84.9909 278.057 85.0862C278.112 85.1697 278.14 85.271 278.14 85.3901V87.2318C278.943 86.2783 279.759 85.563 280.584 85.0862C281.421 84.6094 282.29 84.3711 283.192 84.3711C284.18 84.3711 285.011 84.5499 285.686 84.9074C286.37 85.265 286.919 85.7538 287.331 86.3736C287.755 86.9816 288.06 87.6967 288.245 88.5192C288.43 89.3417 288.522 90.331 288.522 91.4873V101.339ZM305.668 86.4988C305.668 87.0709 305.608 87.4941 305.489 87.7683C305.369 88.0424 305.222 88.1795 305.048 88.1795H303.337C303.576 88.4656 303.744 88.7933 303.842 89.1629C303.951 89.5204 304.006 89.896 304.006 90.2893C304.006 91.219 303.864 92.0475 303.582 92.7747C303.299 93.4899 302.892 94.0977 302.359 94.5984C301.837 95.0871 301.202 95.4626 300.452 95.7248C299.713 95.9751 298.887 96.1004 297.975 96.1004C297.508 96.1004 297.061 96.0407 296.639 95.9216C296.215 95.7905 295.889 95.6414 295.661 95.4746C295.529 95.6295 295.41 95.8143 295.301 96.0288C295.203 96.2433 295.156 96.4818 295.156 96.744C295.156 97.0897 295.291 97.3758 295.563 97.6022C295.845 97.8168 296.236 97.936 296.735 97.9598L300.273 98.1029C301.098 98.1387 301.831 98.2698 302.473 98.4963C303.125 98.7108 303.668 99.0207 304.102 99.426C304.549 99.8193 304.886 100.296 305.114 100.856C305.353 101.417 305.472 102.054 305.472 102.77C305.472 103.556 305.314 104.295 304.999 104.987C304.684 105.69 304.211 106.298 303.582 106.81C302.951 107.323 302.157 107.728 301.202 108.026C300.256 108.324 299.148 108.473 297.877 108.473C296.639 108.473 295.578 108.366 294.698 108.151C293.829 107.937 293.113 107.639 292.547 107.257C291.993 106.876 291.585 106.417 291.325 105.881C291.075 105.356 290.95 104.778 290.95 104.146C290.95 103.753 290.993 103.378 291.08 103.02C291.178 102.662 291.314 102.317 291.488 101.983C291.673 101.661 291.895 101.351 292.156 101.053C292.417 100.755 292.715 100.469 293.053 100.195C292.585 99.9206 292.221 99.5511 291.96 99.0862C291.711 98.6094 291.585 98.0909 291.585 97.5307C291.585 96.8275 291.732 96.1897 292.026 95.6176C292.319 95.0334 292.699 94.5089 293.166 94.0441C292.787 93.6269 292.482 93.1262 292.254 92.5422C292.026 91.9581 291.911 91.231 291.911 90.3608C291.911 89.4311 292.058 88.6027 292.352 87.8756C292.655 87.1365 293.074 86.5166 293.607 86.0159C294.139 85.5034 294.775 85.116 295.514 84.8538C296.253 84.5797 297.067 84.4426 297.958 84.4426C298.414 84.4426 298.85 84.4724 299.262 84.5319C299.686 84.5915 300.077 84.675 300.436 84.7823H305.048C305.233 84.7823 305.38 84.9134 305.489 85.1757C305.608 85.4379 305.668 85.8789 305.668 86.4988ZM300.403 90.2715C300.403 89.4131 300.186 88.7457 299.751 88.2688C299.317 87.7921 298.703 87.5537 297.909 87.5537C297.508 87.5537 297.154 87.6312 296.85 87.7861C296.546 87.9291 296.29 88.1318 296.083 88.3941C295.889 88.6444 295.742 88.9424 295.644 89.288C295.546 89.6217 295.497 89.9734 295.497 90.343C295.497 91.1535 295.714 91.7972 296.149 92.274C296.584 92.7389 297.187 92.9713 297.958 92.9713C298.371 92.9713 298.729 92.8998 299.034 92.7568C299.338 92.6137 299.588 92.4171 299.784 92.1667C299.99 91.9164 300.142 91.6304 300.24 91.3085C300.348 90.9747 300.403 90.629 300.403 90.2715ZM301.365 103.002C301.365 102.466 301.169 102.054 300.778 101.768C300.387 101.482 299.849 101.327 299.164 101.303L296.247 101.214C295.964 101.441 295.736 101.661 295.563 101.876C295.399 102.078 295.263 102.275 295.156 102.466C295.058 102.656 294.992 102.841 294.96 103.02C294.926 103.199 294.911 103.383 294.911 103.574C294.911 104.17 295.182 104.623 295.725 104.933C296.279 105.243 297.056 105.398 298.056 105.398C298.676 105.398 299.197 105.326 299.621 105.183C300.045 105.052 300.387 104.873 300.648 104.647C300.908 104.421 301.093 104.164 301.202 103.878C301.311 103.604 301.365 103.312 301.365 103.002ZM320.206 101.393C320.206 101.56 320.151 101.691 320.043 101.786C319.934 101.882 319.761 101.947 319.522 101.983C319.293 102.031 318.951 102.054 318.495 102.054C318.006 102.054 317.647 102.031 317.419 101.983C317.202 101.947 317.044 101.882 316.946 101.786C316.859 101.691 316.816 101.56 316.816 101.393V100.123C316.218 100.827 315.534 101.375 314.763 101.768C314.002 102.162 313.154 102.358 312.219 102.358C311.448 102.358 310.736 102.245 310.084 102.019C309.443 101.804 308.883 101.482 308.406 101.053C307.939 100.612 307.575 100.07 307.314 99.426C307.053 98.7823 306.923 98.0314 306.923 97.1732C306.923 96.2433 307.085 95.4388 307.411 94.7593C307.749 94.0679 308.243 93.5018 308.895 93.0607C309.558 92.6077 310.378 92.274 311.356 92.0594C312.334 91.8448 313.469 91.7375 314.763 91.7375H316.18V90.7721C316.18 90.2715 316.131 89.8363 316.033 89.4669C315.947 89.0854 315.794 88.7695 315.577 88.5192C315.37 88.2688 315.089 88.0841 314.729 87.9649C314.382 87.8458 313.947 87.7861 313.425 87.7861C312.741 87.7861 312.127 87.8696 311.584 88.0364C311.052 88.2033 310.579 88.3881 310.166 88.5907C309.754 88.7933 309.405 88.9781 309.123 89.145C308.851 89.3118 308.629 89.3953 308.455 89.3953C308.335 89.3953 308.227 89.3536 308.129 89.2702C308.042 89.1867 307.966 89.0675 307.901 88.9126C307.846 88.7576 307.803 88.5669 307.77 88.3404C307.737 88.1139 307.721 87.8636 307.721 87.5894C307.721 87.22 307.749 86.9279 307.803 86.7133C307.858 86.4988 307.96 86.308 308.112 86.1412C308.265 85.9624 308.531 85.7716 308.911 85.569C309.292 85.3544 309.737 85.1577 310.248 84.9789C310.758 84.8001 311.312 84.6572 311.91 84.5499C312.519 84.4306 313.144 84.3711 313.785 84.3711C314.925 84.3711 315.898 84.4962 316.702 84.7465C317.517 84.9849 318.185 85.3604 318.707 85.873C319.228 86.3736 319.608 87.0232 319.848 87.8218C320.087 88.6205 320.206 89.5682 320.206 90.6648V101.393ZM316.18 94.5627H314.616C313.953 94.5627 313.388 94.6162 312.92 94.7235C312.453 94.8308 312.073 94.9918 311.78 95.2063C311.486 95.4209 311.269 95.6832 311.128 95.9931C310.998 96.291 310.932 96.6367 310.932 97.0301C310.932 97.6977 311.122 98.222 311.503 98.6035C311.893 98.9849 312.432 99.1757 313.116 99.1757C313.692 99.1757 314.219 99.0148 314.697 98.6929C315.186 98.3711 315.681 97.9003 316.18 97.2805V94.5627ZM328.73 101.876C328.73 103.127 328.632 104.14 328.437 104.915C328.241 105.69 327.942 106.34 327.541 106.864C327.149 107.401 326.655 107.8 326.057 108.062C325.46 108.336 324.759 108.473 323.954 108.473C323.509 108.473 323.129 108.438 322.814 108.366C322.499 108.306 322.271 108.241 322.13 108.169C321.988 108.098 321.89 108.008 321.836 107.901C321.781 107.794 321.744 107.669 321.721 107.526C321.7 107.395 321.683 107.24 321.673 107.061C321.662 106.894 321.657 106.673 321.657 106.399C321.657 106.065 321.668 105.785 321.689 105.559C321.7 105.344 321.727 105.171 321.77 105.04C321.814 104.909 321.863 104.814 321.917 104.754C321.972 104.695 322.043 104.665 322.13 104.665C322.183 104.665 322.292 104.677 322.456 104.701C322.629 104.736 322.814 104.754 323.01 104.754C323.292 104.754 323.536 104.707 323.743 104.611C323.949 104.516 324.118 104.361 324.248 104.146C324.378 103.944 324.476 103.675 324.542 103.342C324.606 103.02 324.64 102.501 324.64 101.786V85.4259C324.64 85.3068 324.672 85.2055 324.737 85.122C324.802 85.0266 324.911 84.9491 325.063 84.8896C325.215 84.818 325.422 84.7645 325.682 84.7287C325.943 84.6929 326.274 84.675 326.677 84.675C327.079 84.675 327.41 84.6929 327.671 84.7287C327.932 84.7645 328.138 84.818 328.29 84.8896C328.453 84.9491 328.567 85.0266 328.632 85.122C328.698 85.2055 328.73 85.3068 328.73 85.4259V101.876ZM329.04 79.9904C329.04 80.8964 328.871 81.5222 328.535 81.8678C328.209 82.2135 327.584 82.3864 326.66 82.3864C325.748 82.3864 325.128 82.2195 324.802 81.8858C324.476 81.5519 324.314 80.9501 324.314 80.0799C324.314 79.174 324.482 78.5481 324.819 78.2025C325.155 77.8448 325.78 77.666 326.693 77.666C327.616 77.666 328.236 77.8389 328.551 78.1845C328.877 78.5184 329.04 79.1203 329.04 79.9904ZM346.643 101.339C346.643 101.458 346.616 101.566 346.561 101.661C346.507 101.744 346.409 101.816 346.268 101.876C346.137 101.935 345.958 101.977 345.73 102.001C345.512 102.036 345.235 102.054 344.899 102.054C344.54 102.054 344.247 102.036 344.019 102.001C343.801 101.977 343.627 101.935 343.497 101.876C343.367 101.816 343.275 101.744 343.22 101.661C343.166 101.566 343.139 101.458 343.139 101.339V99.4976C342.334 100.451 341.514 101.166 340.678 101.643C339.851 102.12 338.993 102.358 338.102 102.358C337.103 102.358 336.26 102.179 335.576 101.822C334.902 101.464 334.353 100.976 333.929 100.356C333.517 99.7359 333.217 99.0207 333.033 98.2102C332.859 97.3876 332.772 96.3685 332.772 95.1527V85.3901C332.772 85.271 332.8 85.1697 332.853 85.0862C332.919 84.9909 333.028 84.9134 333.179 84.8538C333.343 84.7942 333.554 84.7525 333.816 84.7287C334.087 84.6929 334.419 84.675 334.809 84.675C335.211 84.675 335.543 84.6929 335.804 84.7287C336.065 84.7525 336.271 84.7942 336.423 84.8538C336.586 84.9134 336.7 84.9909 336.766 85.0862C336.831 85.1697 336.863 85.271 336.863 85.3901V94.4018C336.863 95.2362 336.912 95.8738 337.01 96.3148C337.108 96.756 337.254 97.1374 337.45 97.4591C337.657 97.7691 337.912 98.0134 338.216 98.1922C338.531 98.3591 338.895 98.4426 339.308 98.4426C339.83 98.4426 340.352 98.234 340.872 97.8168C341.405 97.3996 341.971 96.7917 342.568 95.9931V85.3901C342.568 85.271 342.595 85.1697 342.649 85.0862C342.715 84.9909 342.823 84.9134 342.975 84.8538C343.139 84.7942 343.35 84.7525 343.611 84.7287C343.872 84.6929 344.204 84.675 344.605 84.675C345.007 84.675 345.339 84.6929 345.599 84.7287C345.86 84.7525 346.066 84.7942 346.219 84.8538C346.371 84.9134 346.479 84.9909 346.545 85.0862C346.61 85.1697 346.643 85.271 346.643 85.3901V101.339ZM363.169 101.393C363.169 101.56 363.115 101.691 363.006 101.786C362.897 101.882 362.724 101.947 362.485 101.983C362.256 102.031 361.915 102.054 361.458 102.054C360.969 102.054 360.611 102.031 360.383 101.983C360.165 101.947 360.008 101.882 359.91 101.786C359.823 101.691 359.78 101.56 359.78 101.393V100.123C359.181 100.827 358.497 101.375 357.726 101.768C356.965 102.162 356.118 102.358 355.183 102.358C354.411 102.358 353.7 102.245 353.048 102.019C352.407 101.804 351.848 101.482 351.369 101.053C350.902 100.612 350.538 100.07 350.278 99.426C350.016 98.7823 349.886 98.0314 349.886 97.1732C349.886 96.2433 350.048 95.4388 350.374 94.7593C350.712 94.0679 351.206 93.5018 351.858 93.0607C352.521 92.6077 353.341 92.274 354.319 92.0594C355.297 91.8448 356.433 91.7375 357.726 91.7375H359.143V90.7721C359.143 90.2715 359.094 89.8363 358.996 89.4669C358.91 89.0854 358.758 88.7695 358.54 88.5192C358.334 88.2688 358.052 88.0841 357.693 87.9649C357.345 87.8458 356.91 87.7861 356.389 87.7861C355.704 87.7861 355.091 87.8696 354.547 88.0364C354.015 88.2033 353.542 88.3881 353.129 88.5907C352.717 88.7933 352.368 88.9781 352.087 89.145C351.814 89.3118 351.592 89.3953 351.418 89.3953C351.298 89.3953 351.19 89.3536 351.092 89.2702C351.005 89.1867 350.929 89.0675 350.864 88.9126C350.809 88.7576 350.766 88.5669 350.734 88.3404C350.7 88.1139 350.685 87.8636 350.685 87.5894C350.685 87.22 350.712 86.9279 350.766 86.7133C350.821 86.4988 350.924 86.308 351.075 86.1412C351.228 85.9624 351.494 85.7716 351.874 85.569C352.255 85.3544 352.7 85.1577 353.211 84.9789C353.721 84.8001 354.275 84.6572 354.873 84.5499C355.482 84.4306 356.107 84.3711 356.748 84.3711C357.888 84.3711 358.861 84.4962 359.665 84.7465C360.48 84.9849 361.148 85.3604 361.67 85.873C362.192 86.3736 362.571 87.0232 362.811 87.8218C363.05 88.6205 363.169 89.5682 363.169 90.6648V101.393ZM359.143 94.5627H357.579C356.916 94.5627 356.352 94.6162 355.884 94.7235C355.417 94.8308 355.036 94.9918 354.743 95.2063C354.45 95.4209 354.232 95.6832 354.091 95.9931C353.961 96.291 353.895 96.6367 353.895 97.0301C353.895 97.6977 354.085 98.222 354.466 98.6035C354.857 98.9849 355.395 99.1757 356.079 99.1757C356.655 99.1757 357.183 99.0148 357.66 98.6929C358.15 98.3711 358.644 97.9003 359.143 97.2805V94.5627ZM381.163 101.339C381.163 101.458 381.13 101.566 381.065 101.661C381 101.744 380.891 101.816 380.739 101.876C380.587 101.935 380.375 101.977 380.104 102.001C379.843 102.036 379.517 102.054 379.125 102.054C378.724 102.054 378.387 102.036 378.115 102.001C377.855 101.977 377.648 101.935 377.495 101.876C377.344 101.816 377.235 101.744 377.169 101.661C377.105 101.566 377.073 101.458 377.073 101.339V92.2382C377.073 91.4634 377.018 90.8555 376.909 90.4145C376.811 89.9734 376.664 89.5979 376.47 89.288C376.274 88.9662 376.018 88.7218 375.703 88.5549C375.399 88.3761 375.04 88.2868 374.627 88.2868C374.106 88.2868 373.579 88.4954 373.046 88.9126C372.514 89.3298 371.96 89.9376 371.384 90.7363V101.339C371.384 101.458 371.351 101.566 371.286 101.661C371.221 101.744 371.107 101.816 370.944 101.876C370.792 101.935 370.585 101.977 370.324 102.001C370.064 102.036 369.732 102.054 369.331 102.054C368.928 102.054 368.596 102.036 368.336 102.001C368.076 101.977 367.863 101.935 367.701 101.876C367.548 101.816 367.439 101.744 367.375 101.661C367.309 101.566 367.277 101.458 367.277 101.339V85.3901C367.277 85.271 367.303 85.1697 367.358 85.0862C367.413 84.9909 367.51 84.9134 367.652 84.8538C367.793 84.7942 367.972 84.7525 368.189 84.7287C368.417 84.6929 368.7 84.675 369.037 84.675C369.384 84.675 369.672 84.6929 369.9 84.7287C370.129 84.7525 370.303 84.7942 370.422 84.8538C370.552 84.9134 370.645 84.9909 370.699 85.0862C370.754 85.1697 370.781 85.271 370.781 85.3901V87.2318C371.585 86.2783 372.399 85.563 373.226 85.0862C374.062 84.6094 374.932 84.3711 375.833 84.3711C376.822 84.3711 377.653 84.5499 378.327 84.9074C379.012 85.265 379.561 85.7538 379.973 86.3736C380.397 86.9816 380.701 87.6967 380.886 88.5192C381.07 89.3417 381.163 90.331 381.163 91.4873V101.339Z" fill="#3F3D56"/>
</svg>
