<svg width="800" height="650" viewBox="0 0 800 650" fill="none" xmlns="http://www.w3.org/2000/svg">
<g clip-path="url(#clip0_41_2863)">
<path d="M776.535 509.438H24.1323C18.0634 509.43 12.245 506.798 7.95361 502.117C3.66222 497.436 1.24831 491.09 1.24146 484.469V21.7025H799.425V484.469C799.418 491.09 797.005 497.436 792.713 502.117C788.422 506.798 782.604 509.43 776.535 509.438Z" fill="#E6E6E6"/>
<path d="M764.754 479.74H40.8771C37.609 479.736 34.476 478.275 32.1651 475.675C29.8543 473.076 28.5545 469.553 28.5508 465.877V70.9748C28.5545 67.2995 29.8543 63.7758 32.1651 61.1768C34.476 58.578 37.609 57.1161 40.8771 57.1119H764.754C768.023 57.1161 771.156 58.5779 773.466 61.1768C775.778 63.7758 777.077 67.2995 777.081 70.9748V465.877C777.077 469.553 775.778 473.076 773.466 475.675C771.156 478.275 768.023 479.736 764.754 479.74Z" fill="white"/>
<path d="M799.425 34.2672H0V19.0068C0.00683867 13.9676 2.41484 9.13652 6.69572 5.57327C10.9766 2.01002 16.7807 0.00569227 22.8348 0H776.591C782.645 0.00569227 788.448 2.01002 792.729 5.57327C797.011 9.13652 799.418 13.9676 799.425 19.0068V34.2672Z" fill="#EF4444"/>
<path d="M227.463 247.866H87.8388C84.2973 247.862 80.9018 246.831 78.3976 244.997C75.8934 243.162 74.4847 240.674 74.4807 238.08V170.841C74.4847 168.247 75.8934 165.759 78.3976 163.925C80.9018 162.091 84.2973 161.059 87.8388 161.056H227.463C231.004 161.059 234.399 162.091 236.904 163.925C239.408 165.759 240.817 168.247 240.821 170.841V238.08C240.817 240.674 239.408 243.162 236.904 244.997C234.399 246.831 231.004 247.862 227.463 247.866Z" fill="#E6E6E6"/>
<path d="M227.463 382.65H87.8388C84.2973 382.647 80.9018 381.615 78.3976 379.781C75.8934 377.946 74.4847 375.458 74.4807 372.864V305.625C74.4847 303.031 75.8934 300.544 78.3976 298.709C80.9018 296.875 84.2973 295.843 87.8388 295.84H227.463C231.004 295.843 234.399 296.875 236.904 298.709C239.408 300.544 240.817 303.031 240.821 305.625V372.864C240.817 375.458 239.408 377.946 236.904 379.781C234.399 381.615 231.004 382.647 227.463 382.65Z" fill="#E6E6E6"/>
<path d="M715.302 172.478H290.186C288.287 172.478 286.466 171.876 285.123 170.806C283.781 169.734 283.026 168.281 283.026 166.767C283.026 165.252 283.781 163.799 285.123 162.728C286.466 161.658 288.287 161.056 290.186 161.056H715.302C717.201 161.056 719.022 161.658 720.365 162.728C721.707 163.799 722.462 165.252 722.462 166.767C722.462 168.281 721.707 169.734 720.365 170.806C719.022 171.876 717.201 172.478 715.302 172.478Z" fill="#E6E6E6"/>
<path d="M715.302 307.262H290.186C288.287 307.262 286.466 306.66 285.123 305.59C283.781 304.519 283.026 303.066 283.026 301.551C283.026 300.036 283.781 298.583 285.123 297.512C286.466 296.442 288.287 295.84 290.186 295.84H715.302C717.201 295.84 719.022 296.442 720.365 297.512C721.707 298.583 722.462 300.036 722.462 301.551C722.462 303.066 721.707 304.519 720.365 305.59C719.022 306.66 717.201 307.262 715.302 307.262Z" fill="#E6E6E6"/>
<path d="M715.303 210.172H290.185C288.287 210.172 286.466 209.631 285.123 208.667C283.781 207.702 283.026 206.395 283.026 205.032C283.026 203.669 283.781 202.361 285.123 201.397C286.466 200.433 288.287 199.892 290.185 199.892H715.303C717.201 199.892 719.022 200.433 720.365 201.397C721.707 202.361 722.462 203.669 722.462 205.032C722.462 206.395 721.707 207.702 720.365 208.667C719.022 209.631 717.201 210.172 715.303 210.172Z" fill="#E6E6E6"/>
<path d="M715.303 344.956H290.185C288.287 344.956 286.466 344.415 285.123 343.45C283.781 342.486 283.026 341.179 283.026 339.816C283.026 338.453 283.781 337.145 285.123 336.181C286.466 335.217 288.287 334.676 290.185 334.676H715.303C717.201 334.676 719.022 335.217 720.365 336.181C721.707 337.145 722.462 338.453 722.462 339.816C722.462 341.179 721.707 342.486 720.365 343.45C719.022 344.415 717.201 344.956 715.303 344.956Z" fill="#E6E6E6"/>
<path d="M715.302 249.008H290.186C288.287 249.008 286.466 248.467 285.123 247.503C283.781 246.539 283.026 245.231 283.026 243.868C283.026 242.505 283.781 241.198 285.123 240.233C286.466 239.269 288.287 238.728 290.186 238.728H715.302C717.201 238.728 719.022 239.269 720.365 240.233C721.707 241.198 722.462 242.505 722.462 243.868C722.462 245.231 721.707 246.539 720.365 247.503C719.022 248.467 717.201 249.008 715.302 249.008Z" fill="#E6E6E6"/>
<path d="M715.302 383.792H290.186C288.287 383.792 286.466 383.251 285.123 382.287C283.781 381.323 283.026 380.015 283.026 378.652C283.026 377.29 283.781 375.982 285.123 375.018C286.466 374.054 288.287 373.512 290.186 373.512H715.302C717.201 373.512 719.022 374.054 720.365 375.018C721.707 375.982 722.462 377.29 722.462 378.652C722.462 380.015 721.707 381.323 720.365 382.287C719.022 383.251 717.201 383.792 715.302 383.792Z" fill="#E6E6E6"/>
<path d="M520.803 635.44H505.584L498.345 581.426H520.806L520.803 635.44Z" fill="#A0616A"/>
<path d="M494.714 631.439H524.064V648.444H476.234C476.234 646.21 476.712 643.999 477.641 641.936C478.57 639.872 479.931 637.998 481.646 636.419C483.363 634.841 485.4 633.588 487.642 632.733C489.884 631.879 492.287 631.439 494.714 631.439Z" fill="#2F2E41"/>
<path d="M584.112 635.44H568.893L561.653 581.426H584.114L584.112 635.44Z" fill="#A0616A"/>
<path d="M558.022 631.439H587.373V648.444H539.542C539.542 646.21 540.02 643.999 540.949 641.936C541.879 639.872 543.239 637.998 544.955 636.419C546.671 634.841 548.709 633.588 550.95 632.733C553.192 631.879 555.596 631.439 558.022 631.439Z" fill="#2F2E41"/>
<path d="M582.174 623.026H566.682C565.283 623.02 563.936 622.532 562.907 621.66C561.877 620.788 561.239 619.594 561.116 618.311L547.987 472.791C547.949 472.369 547.742 471.973 547.404 471.683C547.068 471.393 546.626 471.229 546.164 471.221C545.703 471.214 545.255 471.363 544.908 471.643C544.56 471.922 544.337 472.31 544.283 472.732L525.427 618.494C525.266 619.742 524.612 620.894 523.589 621.729C522.567 622.564 521.248 623.025 519.881 623.026H500.859C499.383 623.024 497.969 622.485 496.922 621.528C495.877 620.571 495.285 619.272 495.275 617.914C495.233 608.759 495.166 599.535 495.097 590.312C494.494 508.159 493.87 423.211 512.512 389.931L512.681 389.628L579.953 388.569L580.122 388.91C600.475 429.836 594.298 521.267 588.324 609.685L587.749 618.205C587.658 619.509 587.031 620.734 585.996 621.629C584.961 622.525 583.594 623.024 582.174 623.026Z" fill="#2F2E41"/>
<path d="M550.305 279.192C567.142 279.192 580.793 266.63 580.793 251.137C580.793 235.643 567.142 223.083 550.305 223.083C533.466 223.083 519.816 235.643 519.816 251.137C519.816 266.63 533.466 279.192 550.305 279.192Z" fill="#A0616A"/>
<path d="M508.739 394.784L509.578 362.619L503.53 337.522C502.002 331.308 502.091 324.849 503.791 318.672C505.489 312.495 508.75 306.776 513.306 301.977C517.738 297.204 523.336 293.462 529.639 291.057C535.942 288.652 542.774 287.652 549.578 288.139C550.017 288.17 550.457 288.204 550.898 288.241C556.712 288.723 562.36 290.276 567.505 292.808C572.652 295.342 577.191 298.802 580.853 302.983C584.592 307.189 587.373 312.044 589.028 317.259C590.684 322.473 591.181 327.942 590.491 333.337L583.175 392.182L508.739 394.784Z" fill="#EF4444"/>
<path d="M482.839 452.433C484.276 451.399 485.452 450.089 486.28 448.592C487.108 447.096 487.57 445.45 487.632 443.772C487.694 442.094 487.356 440.423 486.641 438.879C485.926 437.333 484.851 435.952 483.493 434.831L500.658 397.193L478.004 401.108L465.176 436.249C463.28 438.473 462.337 441.26 462.524 444.083C462.712 446.904 464.018 449.565 466.195 451.56C468.372 453.554 471.27 454.746 474.337 454.907C477.404 455.067 480.43 454.187 482.839 452.433Z" fill="#A0616A"/>
<path d="M612.365 456.944C610.993 455.837 609.901 454.467 609.167 452.929C608.432 451.392 608.073 449.725 608.116 448.046C608.157 446.368 608.597 444.718 609.407 443.212C610.216 441.708 611.374 440.384 612.8 439.336L597.989 400.86L620.365 405.956L631 441.711C632.755 444.031 633.525 446.864 633.162 449.67C632.801 452.478 631.333 455.066 629.035 456.943C626.738 458.821 623.773 459.858 620.7 459.858C617.628 459.858 614.663 458.821 612.365 456.944Z" fill="#A0616A"/>
<path d="M485.564 433.99C484.777 433.99 483.999 433.837 483.281 433.541L470.221 428.158C468.965 427.642 467.961 426.716 467.399 425.561C466.84 424.403 466.764 423.098 467.187 421.893L489.094 359.275L497.56 312.102C497.861 310.425 498.525 308.821 499.513 307.387C500.501 305.952 501.793 304.714 503.312 303.748C504.83 302.781 506.544 302.106 508.353 301.761C510.16 301.416 512.025 301.411 513.836 301.743C515.646 302.075 517.366 302.739 518.892 303.695C520.418 304.651 521.719 305.88 522.719 307.308C523.718 308.737 524.396 310.336 524.71 312.009C525.024 313.684 524.969 315.398 524.548 317.054L511.682 367.646L490.908 430.349C490.559 431.403 489.852 432.326 488.89 432.982C487.928 433.637 486.762 433.99 485.564 433.99Z" fill="#EF4444"/>
<path d="M610.148 433.99C608.951 433.99 607.785 433.637 606.823 432.981C605.86 432.326 605.152 431.403 604.804 430.348L584.041 367.681L571.163 317.053C570.742 315.398 570.688 313.684 571.002 312.009C571.316 310.335 571.994 308.737 572.993 307.308C573.992 305.88 575.294 304.651 576.82 303.695C578.347 302.739 580.066 302.074 581.876 301.742C583.687 301.41 585.552 301.416 587.36 301.761C589.168 302.105 590.882 302.781 592.4 303.747C593.92 304.714 595.211 305.951 596.199 307.386C597.187 308.821 597.851 310.425 598.153 312.102L606.64 359.358L628.526 421.892C628.948 423.098 628.872 424.403 628.312 425.56C627.752 426.716 626.747 427.641 625.491 428.158L612.43 433.541C611.713 433.837 610.935 433.99 610.148 433.99Z" fill="#EF4444"/>
<path d="M550.932 220.125C542.459 216.749 531.39 220.951 527.97 228.844C525.841 233.756 526.491 239.297 527.664 244.473C528.837 249.65 530.511 254.816 530.331 260.101C530.151 265.388 527.677 270.997 522.581 273.443C519.536 274.904 515.974 275.066 512.674 275.937C509.373 276.809 505.967 278.847 505.491 281.975C504.771 286.71 511.013 290.315 510.971 295.095C510.927 300.16 504.048 303.167 503.156 308.165C503.004 309.629 503.256 311.103 503.892 312.452C504.528 313.801 505.526 314.979 506.792 315.875C509.347 317.641 512.249 318.934 515.339 319.682C539.108 326.672 564.417 327.999 588.895 323.538C593.758 322.646 598.765 321.438 602.543 318.483C606.323 315.527 608.484 310.354 606.312 306.251C603.056 300.101 592.716 299.751 589.112 293.765C586.951 290.177 587.945 285.769 588.401 281.686C589.576 271.142 592.287 258.826 589.441 248.556C586.869 239.276 581.285 227.286 573.303 221.142C567.577 216.733 556.643 218.741 549.323 220.101L550.932 220.125Z" fill="#2F2E41"/>
<path d="M798.758 650H364.288C363.959 650 363.643 649.88 363.411 649.666C363.177 649.452 363.047 649.161 363.047 648.858C363.047 648.555 363.177 648.265 363.411 648.051C363.643 647.836 363.959 647.716 364.288 647.716H798.758C799.087 647.716 799.403 647.836 799.636 648.051C799.869 648.265 800 648.555 800 648.858C800 649.161 799.869 649.452 799.636 649.666C799.403 649.88 799.087 650 798.758 650Z" fill="#CCCCCC"/>
<path d="M753.01 623.99C735.11 646.048 697.954 648.369 697.954 648.369C697.954 648.369 689.82 614.928 707.718 592.87C725.619 570.812 762.775 568.491 762.775 568.491C762.775 568.491 770.91 601.932 753.01 623.99Z" fill="#E6E6E6"/>
<path d="M661.825 632.281C673.636 646.837 698.155 648.369 698.155 648.369C698.155 648.369 703.523 626.302 691.711 611.746C679.9 597.192 655.382 595.659 655.382 595.659C655.382 595.659 650.013 617.726 661.825 632.281Z" fill="#E6E6E6"/>
<path d="M248.186 107.91C248.186 108.022 248.142 108.122 248.058 108.211C247.984 108.301 247.858 108.373 247.675 108.429C247.494 108.485 247.252 108.529 246.949 108.563C246.645 108.596 246.258 108.613 245.785 108.613C245.324 108.613 244.936 108.596 244.622 108.563C244.318 108.529 244.075 108.485 243.894 108.429C243.712 108.373 243.579 108.301 243.493 108.211C243.421 108.122 243.384 108.022 243.384 107.91V87.4639C243.384 87.3523 243.421 87.2519 243.493 87.1627C243.579 87.0734 243.712 87.0009 243.894 86.9452C244.088 86.8893 244.336 86.8448 244.639 86.8113C244.942 86.7778 245.324 86.761 245.785 86.761C246.258 86.761 246.645 86.7778 246.949 86.8113C247.252 86.8448 247.494 86.8893 247.675 86.9452C247.858 87.0009 247.984 87.0734 248.058 87.1627C248.142 87.2519 248.186 87.3523 248.186 87.4639V107.91ZM268.532 107.944C268.532 108.055 268.496 108.156 268.423 108.245C268.351 108.323 268.23 108.39 268.059 108.446C267.891 108.501 267.654 108.541 267.351 108.563C267.06 108.596 266.696 108.613 266.26 108.613C265.811 108.613 265.435 108.596 265.132 108.563C264.842 108.541 264.611 108.501 264.441 108.446C264.272 108.39 264.15 108.323 264.077 108.245C264.005 108.156 263.968 108.055 263.968 107.944V99.4272C263.968 98.7021 263.908 98.1333 263.787 97.7206C263.678 97.3078 263.514 96.9564 263.295 96.6664C263.078 96.3652 262.792 96.1365 262.441 95.9804C262.102 95.813 261.701 95.7294 261.241 95.7294C260.659 95.7294 260.071 95.9246 259.477 96.3151C258.883 96.7055 258.265 97.2743 257.622 98.0217V107.944C257.622 108.055 257.586 108.156 257.513 108.245C257.441 108.323 257.313 108.39 257.132 108.446C256.962 108.501 256.731 108.541 256.44 108.563C256.15 108.596 255.78 108.613 255.331 108.613C254.883 108.613 254.513 108.596 254.222 108.563C253.932 108.541 253.695 108.501 253.513 108.446C253.343 108.39 253.222 108.323 253.15 108.245C253.076 108.156 253.04 108.055 253.04 107.944V93.0188C253.04 92.9073 253.07 92.8125 253.131 92.7344C253.192 92.6452 253.301 92.5726 253.459 92.5169C253.616 92.4612 253.816 92.4221 254.058 92.3998C254.313 92.3663 254.628 92.3496 255.004 92.3496C255.392 92.3496 255.713 92.3663 255.968 92.3998C256.222 92.4221 256.416 92.4612 256.55 92.5169C256.695 92.5726 256.798 92.6452 256.859 92.7344C256.92 92.8125 256.949 92.9073 256.949 93.0188V94.7422C257.847 93.8499 258.756 93.1805 259.677 92.7344C260.61 92.2882 261.581 92.0651 262.586 92.0651C263.69 92.0651 264.617 92.2325 265.368 92.567C266.133 92.9017 266.745 93.3591 267.205 93.9391C267.678 94.508 268.017 95.1773 268.223 95.9469C268.429 96.7167 268.532 97.6425 268.532 98.7245V107.944ZM282.607 87.33C282.607 87.6535 282.594 87.9156 282.571 88.1164C282.546 88.306 282.51 88.4566 282.462 88.5682C282.413 88.6686 282.358 88.741 282.298 88.7857C282.237 88.8191 282.171 88.8358 282.098 88.8358C282.013 88.8358 281.915 88.8191 281.807 88.7857C281.709 88.741 281.583 88.6964 281.425 88.6518C281.28 88.6071 281.103 88.5682 280.897 88.5347C280.691 88.49 280.449 88.4678 280.17 88.4678C279.844 88.4678 279.558 88.5179 279.316 88.6183C279.085 88.7075 278.891 88.8582 278.734 89.0701C278.576 89.2709 278.461 89.5386 278.389 89.8732C278.315 90.1967 278.279 90.5983 278.279 91.0779V92.45H281.243C281.352 92.45 281.449 92.4778 281.534 92.5336C281.631 92.5894 281.709 92.6842 281.77 92.8181C281.831 92.9408 281.873 93.1137 281.898 93.3368C281.934 93.5599 281.953 93.8331 281.953 94.1566C281.953 94.7702 281.892 95.2107 281.77 95.4785C281.65 95.735 281.473 95.8633 281.243 95.8633H278.279V107.944C278.279 108.055 278.242 108.156 278.17 108.245C278.097 108.323 277.977 108.39 277.806 108.446C277.636 108.501 277.401 108.541 277.098 108.563C276.794 108.596 276.425 108.613 275.988 108.613C275.552 108.613 275.182 108.596 274.879 108.563C274.588 108.541 274.352 108.501 274.169 108.446C274.001 108.39 273.879 108.323 273.806 108.245C273.745 108.156 273.715 108.055 273.715 107.944V95.8633H271.678C271.448 95.8633 271.272 95.735 271.152 95.4785C271.042 95.2107 270.988 94.7702 270.988 94.1566C270.988 93.8331 271 93.5599 271.024 93.3368C271.06 93.1137 271.103 92.9408 271.152 92.8181C271.211 92.6842 271.284 92.5894 271.369 92.5336C271.467 92.4778 271.575 92.45 271.697 92.45H273.715V91.1951C273.715 90.18 273.824 89.2932 274.043 88.5347C274.26 87.765 274.6 87.1292 275.061 86.6272C275.534 86.1141 276.127 85.7293 276.843 85.4727C277.569 85.2162 278.425 85.0879 279.407 85.0879C279.88 85.0879 280.328 85.127 280.752 85.205C281.177 85.2719 281.509 85.35 281.753 85.4392C281.995 85.5174 282.159 85.5954 282.243 85.6735C282.329 85.7404 282.394 85.8463 282.443 85.9914C282.504 86.1253 282.546 86.3037 282.571 86.5269C282.594 86.7388 282.607 87.0065 282.607 87.33ZM300.427 100.331C300.427 101.602 300.245 102.762 299.881 103.811C299.518 104.86 298.966 105.763 298.227 106.522C297.487 107.28 296.559 107.866 295.445 108.278C294.329 108.691 293.027 108.898 291.535 108.898C290.092 108.898 288.838 108.713 287.771 108.345C286.704 107.977 285.819 107.442 285.117 106.739C284.413 106.036 283.892 105.172 283.553 104.146C283.213 103.119 283.044 101.948 283.044 100.632C283.044 99.3603 283.225 98.2002 283.589 97.1516C283.965 96.092 284.522 95.1885 285.262 94.4411C286.001 93.6826 286.923 93.0969 288.025 92.6842C289.141 92.2714 290.445 92.0651 291.935 92.0651C293.39 92.0651 294.65 92.2492 295.718 92.6173C296.784 92.9742 297.663 93.5041 298.354 94.2068C299.057 94.9095 299.578 95.7741 299.917 96.8003C300.257 97.8265 300.427 99.0033 300.427 100.331ZM295.718 100.498C295.718 99.7619 295.651 99.0869 295.517 98.4734C295.396 97.8489 295.184 97.3078 294.881 96.8504C294.578 96.3931 294.172 96.0361 293.662 95.7796C293.166 95.523 292.535 95.3948 291.772 95.3948C291.093 95.3948 290.499 95.512 289.989 95.7461C289.48 95.9693 289.062 96.3039 288.735 96.75C288.408 97.1851 288.159 97.715 287.989 98.3397C287.832 98.9532 287.753 99.6559 287.753 100.448C287.753 101.184 287.819 101.865 287.953 102.489C288.086 103.103 288.298 103.638 288.589 104.095C288.893 104.553 289.299 104.91 289.808 105.166C290.317 105.412 290.947 105.534 291.698 105.534C292.39 105.534 292.989 105.423 293.5 105.2C294.008 104.965 294.427 104.631 294.753 104.196C295.081 103.761 295.323 103.237 295.481 102.623C295.638 101.998 295.718 101.29 295.718 100.498ZM314.483 94.4076C314.483 94.8091 314.471 95.1382 314.447 95.3948C314.422 95.6513 314.386 95.8521 314.338 95.9972C314.29 96.1421 314.223 96.2425 314.137 96.2983C314.065 96.3541 313.968 96.382 313.846 96.382C313.75 96.382 313.64 96.3652 313.519 96.3317C313.398 96.2872 313.258 96.2425 313.102 96.198C312.955 96.1533 312.793 96.1143 312.61 96.0808C312.429 96.0361 312.228 96.0139 312.01 96.0139C311.756 96.0139 311.5 96.0641 311.246 96.1645C310.991 96.2537 310.724 96.3987 310.446 96.5995C310.179 96.8003 309.895 97.068 309.591 97.4026C309.301 97.7373 308.985 98.15 308.646 98.6408V107.944C308.646 108.055 308.609 108.156 308.537 108.245C308.464 108.323 308.337 108.39 308.155 108.446C307.985 108.501 307.755 108.541 307.465 108.563C307.173 108.596 306.803 108.613 306.355 108.613C305.907 108.613 305.537 108.596 305.245 108.563C304.955 108.541 304.719 108.501 304.536 108.446C304.366 108.39 304.246 108.323 304.173 108.245C304.101 108.156 304.063 108.055 304.063 107.944V93.0188C304.063 92.9073 304.094 92.8125 304.155 92.7344C304.215 92.6452 304.324 92.5726 304.482 92.5169C304.639 92.4612 304.839 92.4221 305.083 92.3998C305.337 92.3663 305.652 92.3496 306.027 92.3496C306.416 92.3496 306.737 92.3663 306.992 92.3998C307.246 92.4221 307.44 92.4612 307.573 92.5169C307.719 92.5726 307.822 92.6452 307.882 92.7344C307.943 92.8125 307.974 92.9073 307.974 93.0188V94.8761C308.397 94.3183 308.798 93.8611 309.173 93.5041C309.549 93.136 309.906 92.846 310.247 92.634C310.585 92.4221 310.926 92.277 311.264 92.199C311.603 92.1097 311.943 92.0651 312.282 92.0651C312.44 92.0651 312.61 92.0763 312.793 92.0986C312.974 92.1097 313.161 92.1377 313.356 92.1822C313.55 92.2157 313.72 92.2603 313.865 92.3161C314.01 92.3607 314.113 92.4109 314.174 92.4666C314.246 92.5225 314.295 92.5838 314.319 92.6508C314.355 92.7177 314.386 92.8125 314.41 92.9352C314.435 93.0468 314.452 93.2196 314.465 93.4539C314.477 93.6881 314.483 94.006 314.483 94.4076ZM343.104 107.944C343.104 108.055 343.068 108.156 342.996 108.245C342.922 108.323 342.801 108.39 342.632 108.446C342.462 108.501 342.231 108.541 341.94 108.563C341.65 108.596 341.28 108.613 340.831 108.613C340.37 108.613 339.995 108.596 339.704 108.563C339.413 108.541 339.176 108.501 338.995 108.446C338.825 108.39 338.704 108.323 338.631 108.245C338.57 108.156 338.54 108.055 338.54 107.944V99.0925C338.54 98.5906 338.486 98.1333 338.377 97.7206C338.28 97.3078 338.122 96.9564 337.904 96.6664C337.698 96.3652 337.431 96.1365 337.103 95.9804C336.789 95.813 336.407 95.7294 335.958 95.7294C335.412 95.7294 334.861 95.9246 334.304 96.3151C333.745 96.7055 333.139 97.2743 332.485 98.0217V107.944C332.485 108.055 332.448 108.156 332.376 108.245C332.303 108.323 332.176 108.39 331.994 108.446C331.825 108.501 331.594 108.541 331.303 108.563C331.012 108.596 330.648 108.613 330.212 108.613C329.763 108.613 329.394 108.596 329.103 108.563C328.812 108.541 328.575 108.501 328.394 108.446C328.224 108.39 328.102 108.323 328.03 108.245C327.957 108.156 327.921 108.055 327.921 107.944V99.0925C327.921 98.5906 327.866 98.1333 327.757 97.7206C327.66 97.3078 327.509 96.9564 327.303 96.6664C327.097 96.3652 326.83 96.1365 326.502 95.9804C326.175 95.813 325.793 95.7294 325.357 95.7294C324.799 95.7294 324.241 95.9246 323.684 96.3151C323.127 96.7055 322.526 97.2743 321.884 98.0217V107.944C321.884 108.055 321.847 108.156 321.775 108.245C321.702 108.323 321.575 108.39 321.393 108.446C321.224 108.501 320.993 108.541 320.702 108.563C320.411 108.596 320.041 108.613 319.593 108.613C319.144 108.613 318.775 108.596 318.483 108.563C318.192 108.541 317.957 108.501 317.774 108.446C317.604 108.39 317.484 108.323 317.41 108.245C317.338 108.156 317.301 108.055 317.301 107.944V93.0188C317.301 92.9073 317.332 92.8125 317.393 92.7344C317.453 92.6452 317.562 92.5726 317.719 92.5169C317.877 92.4612 318.077 92.4221 318.32 92.3998C318.575 92.3663 318.89 92.3496 319.265 92.3496C319.653 92.3496 319.975 92.3663 320.229 92.3998C320.484 92.4221 320.678 92.4612 320.81 92.5169C320.957 92.5726 321.06 92.6452 321.121 92.7344C321.18 92.8125 321.211 92.9073 321.211 93.0188V94.7422C322.108 93.8499 322.999 93.1805 323.884 92.7344C324.781 92.2882 325.715 92.0651 326.684 92.0651C327.351 92.0651 327.951 92.1321 328.484 92.2659C329.018 92.3886 329.491 92.5726 329.903 92.8181C330.326 93.0523 330.69 93.3368 330.994 93.6714C331.297 94.006 331.552 94.3798 331.758 94.7925C332.242 94.3128 332.715 93.9 333.175 93.5543C333.648 93.2085 334.109 92.9296 334.558 92.7177C335.019 92.4946 335.473 92.3329 335.921 92.2325C336.382 92.1209 336.849 92.0651 337.321 92.0651C338.4 92.0651 339.31 92.2325 340.05 92.567C340.789 92.9017 341.383 93.3591 341.831 93.9391C342.292 94.508 342.62 95.1773 342.813 95.9469C343.007 96.7167 343.104 97.5309 343.104 98.3898V107.944ZM361.415 107.994C361.415 108.15 361.355 108.273 361.233 108.362C361.112 108.451 360.918 108.513 360.651 108.546C360.397 108.591 360.016 108.613 359.505 108.613C358.961 108.613 358.561 108.591 358.306 108.546C358.063 108.513 357.888 108.451 357.779 108.362C357.682 108.273 357.634 108.15 357.634 107.994V106.806C356.966 107.464 356.202 107.977 355.342 108.345C354.493 108.713 353.548 108.898 352.506 108.898C351.644 108.898 350.851 108.792 350.123 108.58C349.408 108.379 348.784 108.078 348.25 107.676C347.729 107.263 347.323 106.756 347.033 106.154C346.741 105.551 346.596 104.848 346.596 104.045C346.596 103.175 346.777 102.422 347.14 101.786C347.517 101.139 348.068 100.61 348.795 100.197C349.535 99.773 350.45 99.4607 351.541 99.2599C352.632 99.0591 353.9 98.9587 355.342 98.9587H356.924V98.0552C356.924 97.5867 356.869 97.1795 356.76 96.8338C356.663 96.4768 356.494 96.1812 356.251 95.9469C356.021 95.7126 355.706 95.5398 355.306 95.4282C354.917 95.3167 354.432 95.2609 353.851 95.2609C353.087 95.2609 352.403 95.339 351.796 95.4952C351.202 95.6513 350.675 95.8242 350.214 96.0139C349.754 96.2035 349.365 96.3764 349.051 96.5326C348.747 96.6887 348.499 96.7668 348.305 96.7668C348.171 96.7668 348.05 96.7278 347.941 96.6497C347.844 96.5716 347.759 96.46 347.687 96.3151C347.626 96.17 347.577 95.9916 347.541 95.7796C347.504 95.5677 347.487 95.3334 347.487 95.0769C347.487 94.7311 347.517 94.4578 347.577 94.257C347.638 94.0563 347.754 93.8778 347.923 93.7216C348.093 93.5543 348.389 93.3757 348.814 93.1861C349.238 92.9853 349.735 92.8013 350.305 92.634C350.874 92.4666 351.493 92.3329 352.159 92.2325C352.838 92.1209 353.536 92.0651 354.251 92.0651C355.523 92.0651 356.608 92.1822 357.506 92.4165C358.414 92.6396 359.16 92.9909 359.743 93.4707C360.325 93.9391 360.748 94.547 361.015 95.2944C361.282 96.0417 361.415 96.9286 361.415 97.9547V107.994ZM356.924 101.602H355.178C354.438 101.602 353.809 101.653 353.288 101.753C352.766 101.853 352.342 102.004 352.014 102.205C351.688 102.405 351.444 102.651 351.287 102.941C351.141 103.22 351.068 103.543 351.068 103.911C351.068 104.536 351.28 105.027 351.705 105.384C352.142 105.741 352.741 105.919 353.505 105.919C354.148 105.919 354.736 105.769 355.269 105.467C355.815 105.166 356.366 104.726 356.924 104.146V101.602ZM377.417 103.727C377.417 104.575 377.241 105.322 376.889 105.969C376.55 106.616 376.065 107.157 375.434 107.592C374.805 108.027 374.059 108.351 373.199 108.563C372.337 108.786 371.404 108.898 370.398 108.898C369.791 108.898 369.21 108.853 368.653 108.764C368.107 108.686 367.616 108.585 367.179 108.463C366.743 108.329 366.379 108.195 366.088 108.061C365.798 107.927 365.586 107.804 365.452 107.693C365.319 107.57 365.216 107.386 365.142 107.141C365.07 106.884 365.033 106.51 365.033 106.02C365.033 105.696 365.046 105.44 365.07 105.25C365.094 105.049 365.131 104.893 365.18 104.781C365.228 104.659 365.289 104.581 365.361 104.547C365.434 104.503 365.525 104.48 365.634 104.48C365.767 104.48 365.962 104.553 366.216 104.698C366.482 104.832 366.81 104.982 367.198 105.15C367.585 105.317 368.034 105.473 368.544 105.618C369.065 105.763 369.652 105.836 370.308 105.836C370.72 105.836 371.084 105.797 371.398 105.718C371.725 105.64 372.005 105.529 372.234 105.384C372.478 105.239 372.659 105.055 372.78 104.832C372.901 104.609 372.962 104.352 372.962 104.062C372.962 103.727 372.846 103.443 372.617 103.209C372.398 102.963 372.101 102.751 371.725 102.573C371.362 102.394 370.943 102.227 370.47 102.071C370.01 101.915 369.532 101.742 369.034 101.552C368.55 101.362 368.071 101.145 367.598 100.9C367.137 100.654 366.719 100.353 366.343 99.996C365.979 99.6391 365.682 99.2097 365.452 98.7077C365.234 98.2058 365.125 97.6034 365.125 96.9007C365.125 96.1868 365.277 95.5342 365.579 94.943C365.882 94.3407 366.319 93.8276 366.889 93.4037C367.459 92.9798 368.149 92.6508 368.962 92.4165C369.786 92.1822 370.707 92.0651 371.725 92.0651C372.234 92.0651 372.726 92.0986 373.199 92.1655C373.683 92.2325 374.12 92.3161 374.507 92.4165C374.896 92.5169 375.222 92.6285 375.489 92.7512C375.756 92.8627 375.945 92.963 376.053 93.0523C376.174 93.1304 376.259 93.214 376.308 93.3033C376.357 93.3813 376.393 93.4817 376.416 93.6044C376.441 93.716 376.46 93.8611 376.471 94.0395C376.496 94.2068 376.508 94.4187 376.508 94.6753C376.508 94.9765 376.496 95.2219 376.471 95.4116C376.46 95.6012 376.429 95.7517 376.38 95.8633C376.344 95.9748 376.29 96.0529 376.216 96.0976C376.144 96.131 376.059 96.1477 375.962 96.1477C375.853 96.1477 375.684 96.092 375.453 95.9804C375.222 95.8577 374.932 95.7294 374.58 95.5956C374.24 95.4617 373.841 95.339 373.38 95.2274C372.932 95.1048 372.417 95.0434 371.835 95.0434C371.422 95.0434 371.065 95.0825 370.762 95.1605C370.459 95.2386 370.21 95.3502 370.016 95.4952C369.822 95.6402 369.677 95.8131 369.58 96.0139C369.482 96.2035 369.434 96.4099 369.434 96.633C369.434 96.9787 369.549 97.2687 369.78 97.503C370.01 97.7373 370.313 97.9437 370.689 98.1221C371.065 98.3006 371.489 98.468 371.962 98.6241C372.447 98.7802 372.932 98.9532 373.416 99.1428C373.914 99.3212 374.398 99.5332 374.871 99.7786C375.356 100.024 375.787 100.325 376.162 100.682C376.538 101.039 376.841 101.469 377.072 101.971C377.301 102.461 377.417 103.047 377.417 103.727ZM385.455 107.944C385.455 108.055 385.417 108.156 385.345 108.245C385.272 108.323 385.145 108.39 384.963 108.446C384.793 108.501 384.563 108.541 384.273 108.563C383.981 108.596 383.611 108.613 383.163 108.613C382.715 108.613 382.345 108.596 382.053 108.563C381.763 108.541 381.527 108.501 381.344 108.446C381.174 108.39 381.054 108.323 380.981 108.245C380.909 108.156 380.872 108.055 380.872 107.944V93.0523C380.872 92.9408 380.909 92.846 380.981 92.7678C381.054 92.6786 381.174 92.6061 381.344 92.5504C381.527 92.4834 381.763 92.4333 382.053 92.3998C382.345 92.3663 382.715 92.3496 383.163 92.3496C383.611 92.3496 383.981 92.3663 384.273 92.3998C384.563 92.4333 384.793 92.4834 384.963 92.5504C385.145 92.6061 385.272 92.6786 385.345 92.7678C385.417 92.846 385.455 92.9408 385.455 93.0523V107.944ZM385.8 87.9658C385.8 88.8135 385.612 89.3991 385.236 89.7226C384.86 90.0461 384.164 90.2079 383.144 90.2079C382.114 90.2079 381.418 90.0517 381.054 89.7394C380.703 89.427 380.526 88.8638 380.526 88.0495C380.526 87.2017 380.708 86.6161 381.071 86.2926C381.447 85.9579 382.151 85.7906 383.182 85.7906C384.2 85.7906 384.891 85.9523 385.255 86.2758C385.618 86.5882 385.8 87.1515 385.8 87.9658ZM414.857 93.4372C414.857 94.653 414.651 95.7294 414.239 96.6664C413.827 97.6034 413.227 98.3954 412.439 99.0424C411.651 99.6782 410.681 100.163 409.529 100.498C408.39 100.833 407.044 101 405.492 101H403.529V107.91C403.529 108.022 403.486 108.122 403.402 108.211C403.329 108.301 403.202 108.373 403.02 108.429C402.838 108.485 402.595 108.529 402.292 108.563C401.989 108.596 401.601 108.613 401.129 108.613C400.668 108.613 400.28 108.596 399.965 108.563C399.662 108.529 399.42 108.485 399.237 108.429C399.056 108.373 398.928 108.301 398.856 108.211C398.783 108.122 398.747 108.022 398.747 107.91V88.4343C398.747 87.91 398.892 87.5196 399.183 87.2631C399.485 86.9953 399.88 86.8614 400.364 86.8614H405.911C406.468 86.8614 406.996 86.8838 407.493 86.9284C408.002 86.9618 408.608 87.0456 409.311 87.1793C410.015 87.3021 410.723 87.5363 411.438 87.8821C412.166 88.2279 412.784 88.6686 413.293 89.2039C413.803 89.7282 414.19 90.3473 414.457 91.0612C414.724 91.7639 414.857 92.556 414.857 93.4372ZM409.857 93.7551C409.857 92.9965 409.712 92.3718 409.42 91.8811C409.129 91.3903 408.772 91.0278 408.347 90.7935C407.923 90.5592 407.475 90.4143 407.002 90.3584C406.541 90.2916 406.062 90.2581 405.566 90.2581H403.529V97.6034H405.675C406.438 97.6034 407.075 97.5086 407.584 97.319C408.105 97.1294 408.53 96.8672 408.856 96.5326C409.184 96.1868 409.432 95.7796 409.602 95.3111C409.772 94.8315 409.857 94.3128 409.857 93.7551ZM432.659 100.046C432.659 100.559 432.531 100.939 432.277 101.184C432.035 101.429 431.696 101.552 431.259 101.552H421.385C421.385 102.188 421.463 102.768 421.621 103.292C421.791 103.805 422.052 104.246 422.403 104.614C422.767 104.971 423.227 105.244 423.786 105.434C424.356 105.624 425.034 105.718 425.822 105.718C426.622 105.718 427.325 105.668 427.931 105.568C428.538 105.456 429.059 105.339 429.495 105.217C429.944 105.083 430.313 104.965 430.605 104.865C430.895 104.754 431.132 104.698 431.314 104.698C431.423 104.698 431.513 104.72 431.587 104.765C431.659 104.798 431.719 104.865 431.768 104.965C431.816 105.066 431.847 105.211 431.858 105.401C431.883 105.579 431.896 105.808 431.896 106.087C431.896 106.332 431.89 106.544 431.877 106.722C431.865 106.89 431.847 107.035 431.822 107.157C431.799 107.28 431.762 107.386 431.713 107.475C431.665 107.553 431.599 107.631 431.513 107.71C431.441 107.788 431.229 107.894 430.877 108.027C430.525 108.161 430.077 108.295 429.531 108.429C428.986 108.552 428.362 108.658 427.659 108.747C426.955 108.847 426.204 108.898 425.403 108.898C423.961 108.898 422.695 108.73 421.604 108.396C420.525 108.061 419.621 107.553 418.894 106.873C418.166 106.193 417.621 105.334 417.258 104.296C416.906 103.259 416.73 102.043 416.73 100.649C416.73 99.3212 416.918 98.1277 417.294 97.068C417.67 95.9972 418.215 95.0937 418.93 94.3574C419.646 93.61 420.513 93.0412 421.53 92.6508C422.561 92.2603 423.719 92.0651 425.004 92.0651C426.362 92.0651 427.519 92.2492 428.477 92.6173C429.447 92.9853 430.241 93.4985 430.859 94.1566C431.477 94.8035 431.932 95.5733 432.222 96.4656C432.514 97.358 432.659 98.3285 432.659 99.3771V100.046ZM428.223 98.8416C428.259 97.6591 427.998 96.7334 427.441 96.0641C426.894 95.3837 426.046 95.0434 424.895 95.0434C424.312 95.0434 423.803 95.1438 423.368 95.3446C422.943 95.5454 422.586 95.8186 422.294 96.1645C422.016 96.4991 421.797 96.9007 421.64 97.3691C421.494 97.8265 421.41 98.3173 421.385 98.8416H428.223ZM451.933 107.944C451.933 108.055 451.897 108.156 451.824 108.245C451.752 108.323 451.631 108.39 451.462 108.446C451.292 108.501 451.055 108.541 450.752 108.563C450.461 108.596 450.098 108.613 449.661 108.613C449.212 108.613 448.836 108.596 448.533 108.563C448.243 108.541 448.012 108.501 447.842 108.446C447.673 108.39 447.552 108.323 447.478 108.245C447.406 108.156 447.37 108.055 447.37 107.944V99.4272C447.37 98.7021 447.309 98.1333 447.188 97.7206C447.079 97.3078 446.915 96.9564 446.697 96.6664C446.479 96.3652 446.194 96.1365 445.842 95.9804C445.503 95.813 445.102 95.7294 444.642 95.7294C444.061 95.7294 443.472 95.9246 442.878 96.3151C442.285 96.7055 441.666 97.2743 441.023 98.0217V107.944C441.023 108.055 440.987 108.156 440.914 108.245C440.842 108.323 440.714 108.39 440.533 108.446C440.363 108.501 440.133 108.541 439.842 108.563C439.551 108.596 439.181 108.613 438.733 108.613C438.284 108.613 437.914 108.596 437.623 108.563C437.333 108.541 437.096 108.501 436.914 108.446C436.744 108.39 436.623 108.323 436.551 108.245C436.477 108.156 436.442 108.055 436.442 107.944V93.0188C436.442 92.9073 436.471 92.8125 436.532 92.7344C436.593 92.6452 436.702 92.5726 436.86 92.5169C437.017 92.4612 437.217 92.4221 437.459 92.3998C437.714 92.3663 438.029 92.3496 438.405 92.3496C438.793 92.3496 439.114 92.3663 439.369 92.3998C439.623 92.4221 439.818 92.4612 439.951 92.5169C440.096 92.5726 440.199 92.6452 440.26 92.7344C440.321 92.8125 440.35 92.9073 440.35 93.0188V94.7422C441.248 93.8499 442.157 93.1805 443.079 92.7344C444.012 92.2882 444.982 92.0651 445.987 92.0651C447.091 92.0651 448.018 92.2325 448.771 92.567C449.534 92.9017 450.146 93.3591 450.606 93.9391C451.079 94.508 451.418 95.1773 451.624 95.9469C451.83 96.7167 451.933 97.6425 451.933 98.7245V107.944ZM471.064 94.0563C471.064 94.5917 470.997 94.9877 470.863 95.2442C470.73 95.5008 470.566 95.629 470.372 95.629H468.463C468.73 95.8968 468.918 96.2035 469.027 96.5493C469.148 96.8839 469.208 97.2354 469.208 97.6034C469.208 98.4734 469.05 99.2487 468.736 99.9292C468.421 100.598 467.965 101.167 467.372 101.636C466.79 102.093 466.081 102.445 465.244 102.69C464.42 102.924 463.499 103.041 462.48 103.041C461.96 103.041 461.462 102.986 460.989 102.874C460.516 102.751 460.152 102.612 459.898 102.456C459.753 102.601 459.62 102.774 459.498 102.974C459.389 103.175 459.334 103.398 459.334 103.644C459.334 103.967 459.486 104.235 459.789 104.447C460.104 104.648 460.541 104.759 461.098 104.781L465.045 104.915C465.966 104.949 466.784 105.071 467.499 105.283C468.226 105.484 468.833 105.774 469.317 106.154C469.815 106.522 470.19 106.968 470.444 107.492C470.711 108.016 470.845 108.613 470.845 109.282C470.845 110.019 470.669 110.71 470.318 111.357C469.966 112.015 469.439 112.584 468.736 113.064C468.032 113.543 467.147 113.923 466.081 114.202C465.026 114.481 463.79 114.62 462.372 114.62C460.989 114.62 459.807 114.52 458.825 114.319C457.856 114.118 457.055 113.839 456.426 113.482C455.806 113.125 455.352 112.696 455.062 112.194C454.782 111.703 454.643 111.162 454.643 110.571C454.643 110.203 454.692 109.851 454.789 109.517C454.898 109.182 455.049 108.858 455.243 108.546C455.449 108.245 455.698 107.955 455.989 107.676C456.279 107.397 456.613 107.13 456.989 106.873C456.468 106.616 456.062 106.271 455.77 105.836C455.492 105.389 455.352 104.904 455.352 104.38C455.352 103.722 455.516 103.125 455.844 102.59C456.17 102.043 456.595 101.552 457.116 101.117C456.692 100.727 456.353 100.258 456.098 99.7116C455.844 99.1651 455.716 98.4846 455.716 97.6703C455.716 96.8003 455.88 96.0251 456.207 95.3446C456.546 94.653 457.013 94.073 457.608 93.6044C458.201 93.1248 458.91 92.7622 459.735 92.5169C460.56 92.2603 461.468 92.1321 462.463 92.1321C462.971 92.1321 463.457 92.1599 463.917 92.2157C464.39 92.2714 464.826 92.3496 465.226 92.45H470.372C470.578 92.45 470.742 92.5726 470.863 92.8181C470.997 93.0635 471.064 93.4761 471.064 94.0563ZM465.19 97.5867C465.19 96.7835 464.948 96.1589 464.462 95.7126C463.978 95.2665 463.293 95.0434 462.408 95.0434C461.96 95.0434 461.565 95.1159 461.226 95.2609C460.886 95.3948 460.602 95.5844 460.371 95.8298C460.152 96.0641 459.99 96.3429 459.881 96.6664C459.771 96.9787 459.717 97.3078 459.717 97.6537C459.717 98.4121 459.959 99.0145 460.444 99.4607C460.928 99.8958 461.601 100.113 462.463 100.113C462.923 100.113 463.323 100.046 463.663 99.9124C464.002 99.7786 464.281 99.5945 464.498 99.3603C464.729 99.126 464.899 98.8584 465.009 98.5572C465.129 98.2448 465.19 97.9213 465.19 97.5867ZM466.262 109.5C466.262 108.998 466.045 108.613 465.608 108.345C465.171 108.078 464.572 107.933 463.808 107.91L460.553 107.827C460.238 108.039 459.984 108.245 459.789 108.446C459.607 108.635 459.456 108.819 459.334 108.998C459.225 109.176 459.153 109.349 459.116 109.517C459.08 109.684 459.063 109.857 459.063 110.035C459.063 110.593 459.365 111.017 459.971 111.307C460.589 111.597 461.456 111.742 462.572 111.742C463.262 111.742 463.844 111.675 464.317 111.541C464.79 111.418 465.171 111.251 465.463 111.039C465.753 110.827 465.959 110.587 466.081 110.32C466.201 110.063 466.262 109.79 466.262 109.5ZM487.283 107.994C487.283 108.15 487.222 108.273 487.101 108.362C486.98 108.451 486.787 108.513 486.52 108.546C486.265 108.591 485.883 108.613 485.374 108.613C484.828 108.613 484.428 108.591 484.174 108.546C483.932 108.513 483.755 108.451 483.646 108.362C483.549 108.273 483.501 108.15 483.501 107.994V106.806C482.834 107.464 482.071 107.977 481.209 108.345C480.361 108.713 479.416 108.898 478.373 108.898C477.513 108.898 476.718 108.792 475.991 108.58C475.276 108.379 474.651 108.078 474.118 107.676C473.597 107.263 473.19 106.756 472.9 106.154C472.609 105.551 472.463 104.848 472.463 104.045C472.463 103.175 472.645 102.422 473.009 101.786C473.385 101.139 473.936 100.61 474.664 100.197C475.404 99.773 476.318 99.4607 477.41 99.2599C478.501 99.0591 479.767 98.9587 481.209 98.9587H482.792V98.0552C482.792 97.5867 482.737 97.1795 482.628 96.8338C482.531 96.4768 482.361 96.1812 482.119 95.9469C481.888 95.7126 481.573 95.5398 481.173 95.4282C480.786 95.3167 480.301 95.2609 479.718 95.2609C478.955 95.2609 478.27 95.339 477.664 95.4952C477.069 95.6513 476.543 95.8242 476.081 96.0139C475.621 96.2035 475.233 96.3764 474.918 96.5326C474.615 96.6887 474.367 96.7668 474.172 96.7668C474.039 96.7668 473.918 96.7278 473.808 96.6497C473.712 96.5716 473.627 96.46 473.554 96.3151C473.494 96.17 473.445 95.9916 473.409 95.7796C473.373 95.5677 473.354 95.3334 473.354 95.0769C473.354 94.7311 473.385 94.4578 473.445 94.257C473.506 94.0563 473.621 93.8778 473.791 93.7216C473.96 93.5543 474.258 93.3757 474.682 93.1861C475.106 92.9853 475.603 92.8013 476.173 92.634C476.743 92.4666 477.361 92.3329 478.028 92.2325C478.707 92.1209 479.403 92.0651 480.118 92.0651C481.392 92.0651 482.477 92.1822 483.374 92.4165C484.283 92.6396 485.029 92.9909 485.61 93.4707C486.192 93.9391 486.617 94.547 486.883 95.2944C487.15 96.0417 487.283 96.9286 487.283 97.9547V107.994ZM482.792 101.602H481.047C480.307 101.602 479.676 101.653 479.155 101.753C478.634 101.853 478.209 102.004 477.882 102.205C477.555 102.405 477.313 102.651 477.155 102.941C477.01 103.22 476.937 103.543 476.937 103.911C476.937 104.536 477.149 105.027 477.573 105.384C478.009 105.741 478.61 105.919 479.373 105.919C480.015 105.919 480.604 105.769 481.137 105.467C481.682 105.166 482.235 104.726 482.792 104.146V101.602ZM496.793 108.446C496.793 109.617 496.684 110.565 496.465 111.29C496.248 112.015 495.914 112.623 495.466 113.114C495.029 113.616 494.478 113.99 493.811 114.235C493.145 114.491 492.363 114.62 491.465 114.62C490.969 114.62 490.544 114.586 490.193 114.52C489.84 114.464 489.586 114.402 489.428 114.336C489.271 114.268 489.163 114.185 489.102 114.084C489.041 113.984 488.999 113.867 488.974 113.733C488.95 113.61 488.932 113.465 488.919 113.298C488.908 113.142 488.902 112.936 488.902 112.679C488.902 112.367 488.913 112.104 488.938 111.893C488.95 111.692 488.98 111.53 489.029 111.407C489.077 111.285 489.132 111.195 489.192 111.14C489.253 111.084 489.331 111.056 489.428 111.056C489.489 111.056 489.611 111.067 489.792 111.089C489.987 111.123 490.193 111.14 490.41 111.14C490.725 111.14 490.999 111.095 491.229 111.006C491.459 110.917 491.648 110.771 491.793 110.571C491.938 110.381 492.047 110.13 492.119 109.818C492.193 109.517 492.229 109.031 492.229 108.362V93.0523C492.229 92.9408 492.266 92.846 492.338 92.7678C492.411 92.6786 492.532 92.6061 492.702 92.5504C492.872 92.4834 493.101 92.4333 493.393 92.3998C493.684 92.3663 494.053 92.3496 494.502 92.3496C494.951 92.3496 495.321 92.3663 495.611 92.3998C495.902 92.4333 496.133 92.4834 496.303 92.5504C496.484 92.6061 496.612 92.6786 496.684 92.7678C496.757 92.846 496.793 92.9408 496.793 93.0523V108.446ZM497.138 87.9658C497.138 88.8135 496.951 89.3991 496.575 89.7226C496.211 90.0461 495.515 90.2079 494.484 90.2079C493.465 90.2079 492.775 90.0517 492.411 89.7394C492.047 89.427 491.865 88.8638 491.865 88.0495C491.865 87.2017 492.054 86.6161 492.429 86.2926C492.805 85.9579 493.502 85.7906 494.52 85.7906C495.551 85.7906 496.242 85.9523 496.593 86.2758C496.957 86.5882 497.138 87.1515 497.138 87.9658ZM516.778 107.944C516.778 108.055 516.746 108.156 516.686 108.245C516.626 108.323 516.517 108.39 516.359 108.446C516.214 108.501 516.013 108.541 515.758 108.563C515.516 108.596 515.207 108.613 514.831 108.613C514.431 108.613 514.104 108.596 513.849 108.563C513.607 108.541 513.413 108.501 513.268 108.446C513.122 108.39 513.019 108.323 512.959 108.245C512.898 108.156 512.867 108.055 512.867 107.944V106.22C511.971 107.113 511.055 107.782 510.121 108.228C509.2 108.674 508.243 108.898 507.249 108.898C506.133 108.898 505.195 108.73 504.43 108.396C503.679 108.061 503.067 107.604 502.594 107.024C502.133 106.444 501.799 105.774 501.593 105.016C501.4 104.246 501.303 103.292 501.303 102.155V93.0188C501.303 92.9073 501.333 92.8125 501.394 92.7344C501.467 92.6452 501.587 92.5726 501.757 92.5169C501.94 92.4612 502.176 92.4221 502.466 92.3998C502.77 92.3663 503.139 92.3496 503.576 92.3496C504.024 92.3496 504.394 92.3663 504.684 92.3998C504.976 92.4221 505.206 92.4612 505.376 92.5169C505.558 92.5726 505.685 92.6452 505.758 92.7344C505.83 92.8125 505.867 92.9073 505.867 93.0188V101.452C505.867 102.233 505.922 102.829 506.03 103.242C506.139 103.655 506.303 104.012 506.522 104.313C506.752 104.603 507.037 104.832 507.376 104.999C507.728 105.155 508.134 105.233 508.595 105.233C509.177 105.233 509.758 105.038 510.34 104.648C510.935 104.257 511.564 103.688 512.232 102.941V93.0188C512.232 92.9073 512.262 92.8125 512.322 92.7344C512.394 92.6452 512.516 92.5726 512.686 92.5169C512.867 92.4612 513.104 92.4221 513.395 92.3998C513.685 92.3663 514.055 92.3496 514.505 92.3496C514.953 92.3496 515.323 92.3663 515.613 92.3998C515.905 92.4221 516.135 92.4612 516.305 92.5169C516.475 92.5726 516.595 92.6452 516.668 92.7344C516.74 92.8125 516.778 92.9073 516.778 93.0188V107.944ZM535.215 107.994C535.215 108.15 535.154 108.273 535.034 108.362C534.912 108.451 534.719 108.513 534.452 108.546C534.197 108.591 533.815 108.613 533.306 108.613C532.761 108.613 532.36 108.591 532.106 108.546C531.864 108.513 531.687 108.451 531.579 108.362C531.481 108.273 531.433 108.15 531.433 107.994V106.806C530.766 107.464 530.003 107.977 529.143 108.345C528.293 108.713 527.348 108.898 526.305 108.898C525.445 108.898 524.65 108.792 523.924 108.58C523.208 108.379 522.583 108.078 522.051 107.676C521.529 107.263 521.123 106.756 520.832 106.154C520.541 105.551 520.396 104.848 520.396 104.045C520.396 103.175 520.577 102.422 520.941 101.786C521.317 101.139 521.868 100.61 522.596 100.197C523.336 99.773 524.25 99.4607 525.342 99.2599C526.433 99.0591 527.7 98.9587 529.143 98.9587H530.724V98.0552C530.724 97.5867 530.669 97.1795 530.56 96.8338C530.463 96.4768 530.293 96.1812 530.051 95.9469C529.82 95.7126 529.506 95.5398 529.105 95.4282C528.718 95.3167 528.233 95.2609 527.65 95.2609C526.887 95.2609 526.202 95.339 525.596 95.4952C525.003 95.6513 524.475 95.8242 524.015 96.0139C523.554 96.2035 523.165 96.3764 522.85 96.5326C522.547 96.6887 522.299 96.7668 522.105 96.7668C521.971 96.7668 521.851 96.7278 521.742 96.6497C521.645 96.5716 521.559 96.46 521.487 96.3151C521.426 96.17 521.378 95.9916 521.341 95.7796C521.305 95.5677 521.287 95.3334 521.287 95.0769C521.287 94.7311 521.317 94.4578 521.378 94.257C521.439 94.0563 521.553 93.8778 521.723 93.7216C521.893 93.5543 522.19 93.3757 522.614 93.1861C523.039 92.9853 523.535 92.8013 524.105 92.634C524.675 92.4666 525.293 92.3329 525.96 92.2325C526.639 92.1209 527.336 92.0651 528.051 92.0651C529.324 92.0651 530.409 92.1822 531.306 92.4165C532.215 92.6396 532.961 92.9909 533.543 93.4707C534.124 93.9391 534.549 94.547 534.815 95.2944C535.082 96.0417 535.215 96.9286 535.215 97.9547V107.994ZM530.724 101.602H528.979C528.239 101.602 527.608 101.653 527.087 101.753C526.565 101.853 526.142 102.004 525.814 102.205C525.487 102.405 525.245 102.651 525.087 102.941C524.942 103.22 524.869 103.543 524.869 103.911C524.869 104.536 525.081 105.027 525.505 105.384C525.942 105.741 526.542 105.919 527.305 105.919C527.948 105.919 528.536 105.769 529.069 105.467C529.614 105.166 530.167 104.726 530.724 104.146V101.602ZM555.29 107.944C555.29 108.055 555.254 108.156 555.181 108.245C555.109 108.323 554.987 108.39 554.817 108.446C554.647 108.501 554.411 108.541 554.108 108.563C553.818 108.596 553.454 108.613 553.017 108.613C552.569 108.613 552.193 108.596 551.89 108.563C551.598 108.541 551.369 108.501 551.199 108.446C551.029 108.39 550.908 108.323 550.835 108.245C550.763 108.156 550.726 108.055 550.726 107.944V99.4272C550.726 98.7021 550.665 98.1333 550.545 97.7206C550.435 97.3078 550.271 96.9564 550.053 96.6664C549.836 96.3652 549.55 96.1365 549.199 95.9804C548.859 95.813 548.459 95.7294 547.999 95.7294C547.416 95.7294 546.829 95.9246 546.235 96.3151C545.641 96.7055 545.023 97.2743 544.38 98.0217V107.944C544.38 108.055 544.344 108.156 544.271 108.245C544.199 108.323 544.071 108.39 543.89 108.446C543.72 108.501 543.489 108.541 543.198 108.563C542.907 108.596 542.538 108.613 542.089 108.613C541.64 108.613 541.27 108.596 540.98 108.563C540.688 108.541 540.452 108.501 540.27 108.446C540.101 108.39 539.979 108.323 539.907 108.245C539.834 108.156 539.798 108.055 539.798 107.944V93.0188C539.798 92.9073 539.828 92.8125 539.889 92.7344C539.95 92.6452 540.059 92.5726 540.217 92.5169C540.373 92.4612 540.574 92.4221 540.816 92.3998C541.071 92.3663 541.386 92.3496 541.762 92.3496C542.149 92.3496 542.471 92.3663 542.725 92.3998C542.98 92.4221 543.173 92.4612 543.308 92.5169C543.453 92.5726 543.556 92.6452 543.617 92.7344C543.677 92.8125 543.707 92.9073 543.707 93.0188V94.7422C544.605 93.8499 545.513 93.1805 546.434 92.7344C547.368 92.2882 548.337 92.0651 549.344 92.0651C550.448 92.0651 551.375 92.2325 552.126 92.567C552.889 92.9017 553.503 93.3591 553.963 93.9391C554.436 94.508 554.775 95.1773 554.981 95.9469C555.187 96.7167 555.29 97.6425 555.29 98.7245V107.944Z" fill="#3F3D56"/>
</g>
<defs>
<clipPath id="clip0_41_2863">
<rect width="800" height="650" fill="white"/>
</clipPath>
</defs>
</svg>
